<svg xmlns="http://www.w3.org/2000/svg" width="56" height="56" viewBox="0 0 56 56">
  <g fill="none">
    <g fill="#191A19">
      <path d="M28 0.5C12.8 0.5 0.5 12.8 0.5 28 0.5 43.2 12.8 55.5 28 55.5 43.2 55.5 55.5 43.2 55.5 28 55.5 12.8 43.2 0.5 28 0.5ZM17.6 39.8C17.2 40.4 16.6 40.7 15.9 40.7 15.6 40.7 15.2 40.6 14.9 40.4 14 39.9 13.7 38.7 14.2 37.8L16.1 34.7C16.3 34.4 16.6 34.2 17 34.2L17.3 34.2C18.7 34.2 19.6 35 19.9 35.8L17.6 39.8 17.6 39.8ZM33.5 33.6L21.2 33.6 13 33.6C11.9 33.6 11 32.7 11.1 31.6 11.1 30.6 12 29.8 13.1 29.8L19 29.8 26 17.8 23.7 14C23.2 13.1 23.4 12 24.3 11.4 25.2 10.8 26.4 11.1 27 12L28.2 14.1 28.2 14.1 29.4 12C29.9 11.1 31.2 10.8 32.1 11.4 33 12 33.2 13.1 32.7 14L30.4 17.9 28.2 21.7 23.4 29.9 23.4 29.9 30.5 29.9C31.4 29.9 32.5 30.4 32.9 31.1L32.9 31.2C33.3 31.9 33.5 32.3 33.5 33 33.6 33.4 33.5 33.6 33.5 33.6L33.5 33.6ZM43 33.6L39.7 33.6 39.7 33.6 42.1 37.7C42.6 38.6 42.4 39.8 41.5 40.3 41.2 40.5 40.9 40.6 40.5 40.6 39.8 40.6 39.2 40.3 38.8 39.7L35.2 33.6 33 29.8 30.1 24.9C29.3 23.5 29.2 21.7 30 20.2 30.6 19.2 31 18.9 31 18.9L37.4 29.8 43 29.8C44 29.8 44.9 30.6 45 31.6 45 32.7 44.1 33.6 43 33.6L43 33.6Z"/>
    </g>
  </g>
</svg>