<svg xmlns="http://www.w3.org/2000/svg" width="56" height="56" viewBox="0 0 56 56"><path d="M28 .5C12.8.5.5 12.8.5 28S12.8 55.5 28 55.5 55.5 43.2 55.5 28 43.2.5 28 .5zM17.6 39.8c-.4.6-1 .9-1.7.9-.3 0-.7-.1-1-.3-.9-.5-1.2-1.7-.7-2.6l1.9-3.1c.2-.3.5-.5.9-.5h.3c1.4 0 2.3.8 2.6 1.6l-2.3 4zm15.9-6.2H13c-1.1 0-2-.9-1.9-2 0-1 .9-1.8 2-1.8H19l7-12-2.3-3.8c-.5-.9-.3-2 .6-2.6.9-.6 2.1-.3 2.7.6l1.2 2.1 1.2-2.1c.5-.9 1.8-1.2 2.7-.6.9.6 1.1 1.7.6 2.6l-2.3 3.9-2.2 3.8-4.8 8.2h7.1c.9 0 2 .5 2.4 1.2v.1c.4.7.6 1.1.6 1.8.1.4 0 .6 0 .6zm9.5 0h-3.3l2.4 4.1c.5.9.3 2.1-.6 2.6-.3.2-.6.3-1 .3-.7 0-1.3-.3-1.7-.9l-3.6-6.1-2.2-3.8-2.9-4.9c-.8-1.4-.9-3.2-.1-4.7.6-1 1-1.3 1-1.3l6.4 10.9H43c1 0 1.9.8 2 1.8 0 1.1-.9 2-2 2z" fill="#191A19"/></svg>