<svg xmlns="http://www.w3.org/2000/svg" width="285" height="75" viewBox="0 0 285 75" aria-labelledby="onehub-title" role="img">
  <title id="onehub-title">Onehub</title>
  <g fill="none">
    <path d="M282.9 25.4L282.4 23.2 282.4 25.5C282.4 25.7 282.3 25.7 282.3 25.8 282.2 25.9 282.2 25.9 282.1 25.9 282 25.9 281.9 25.9 281.8 25.8 281.8 25.8 281.8 25.7 281.8 25.5L281.8 22.9C281.8 22.8 281.8 22.7 281.9 22.6 281.9 22.6 282 22.5 282.2 22.5L282.4 22.5C282.5 22.5 282.6 22.5 282.7 22.6 282.7 22.6 282.8 22.6 282.8 22.7 282.8 22.8 282.8 22.9 282.9 23L283.4 24.8 283.8 23C283.9 22.9 283.9 22.8 283.9 22.7 284 22.6 284 22.6 284.1 22.6 284.1 22.5 284.2 22.5 284.3 22.5L284.5 22.5C284.7 22.5 284.8 22.6 284.8 22.6 284.9 22.7 285 22.8 285 22.9L285 25.5C285 25.7 284.9 25.7 284.9 25.8 284.8 25.9 284.7 25.9 284.6 25.9 284.6 25.9 284.5 25.9 284.4 25.8 284.4 25.7 284.3 25.7 284.3 25.5L284.3 23.2 283.8 25.4C283.8 25.5 283.7 25.6 283.7 25.7 283.7 25.7 283.7 25.8 283.6 25.8 283.5 25.9 283.5 25.9 283.4 25.9 283.3 25.9 283.2 25.9 283.2 25.9 283.1 25.8 283.1 25.8 283 25.7 283 25.7 283 25.6 283 25.6 282.9 25.5 282.9 25.4 282.9 25.4" fill="#0A0B09"/>
    <path d="M280.9 23.1L280.1 23.1 280.1 25.5C280.1 25.6 280.1 25.7 280 25.8 280 25.9 279.9 25.9 279.8 25.9 279.7 25.9 279.6 25.9 279.6 25.8 279.5 25.7 279.5 25.6 279.5 25.5L279.5 23.1 278.7 23.1C278.6 23.1 278.5 23.1 278.5 23 278.4 23 278.4 22.9 278.4 22.8 278.4 22.7 278.4 22.7 278.5 22.6 278.5 22.6 278.6 22.5 278.7 22.5L280.9 22.5C281 22.5 281.1 22.6 281.1 22.6 281.2 22.7 281.2 22.7 281.2 22.8 281.2 22.9 281.2 23 281.1 23 281.1 23.1 281 23.1 280.9 23.1" fill="#0A0B09"/>
    <path d="M257.5 45.6C257.3 45.5 257 45.3 257 44.9L257 30C257 29.6 257.3 29.4 257.5 29.3 266 26.8 270.2 28.3 270.2 32.8L270.2 41.3C270.2 46.5 265.9 47.3 257.5 45.6ZM277.2 31C277.2 23.5 269.7 21.6 265 21.6 262.7 21.6 259.7 22.2 257 22.8L257 12C257 11.6 256.8 11.2 256.6 11 256.3 10.7 256 10.5 255.6 10.5L251.5 10.5C250.9 10.5 250.4 10.9 250.2 11.4 250.1 11.6 250.1 11.8 250.1 12L250.1 49.9C250.1 50.6 250.6 51.2 251.3 51.3 254.1 52.1 259.7 52.9 265 52.9 269.7 52.9 277.2 51 277.2 43.5L277.2 31 277.2 31Z" fill="#0A0B09"/>
    <path d="M244.4 22.3L240.3 22.3C239.5 22.3 238.9 23 238.9 23.7L238.9 44.9C238.9 45.3 238.6 45.5 238.3 45.6 230 47.3 225.6 46.5 225.6 41.3L225.6 23.8C225.6 23 225 22.3 224.2 22.3L220.1 22.3C219.3 22.3 218.7 23 218.7 23.8L218.7 43.5C218.7 51 226.1 52.9 230.9 52.9 236.2 52.9 241.8 52.1 244.6 51.3 245.3 51.2 245.8 50.6 245.8 49.9L245.8 23.7C245.8 23 245.2 22.3 244.4 22.3" fill="#0A0B09"/>
    <path d="M201.7 21.6C199.4 21.6 196.4 22.2 193.7 22.8L193.7 12C193.7 11.2 193 10.5 192.3 10.5L188.2 10.5C187.4 10.5 186.7 11.2 186.7 12L186.7 50.8C186.7 50.9 186.8 51 186.8 51.1 186.9 51.8 187.5 52.3 188.2 52.3L192.3 52.3C193 52.3 193.7 51.6 193.7 50.8L193.7 46.7 193.7 46.7 193.7 30C193.7 29.6 193.9 29.4 194.2 29.3 202.7 26.8 206.9 28.3 206.9 32.8L206.9 50.8C206.9 51.6 207.6 52.2 208.4 52.2L212.4 52.2C213.2 52.2 213.9 51.6 213.9 50.8L213.9 31C213.9 23.5 206.4 21.6 201.7 21.6" fill="#0A0B09"/>
    <path d="M175.2 34.5L163.6 34.5C163.3 34.5 163 34.2 163 33.9 163 33.9 163 33.9 163 33.9 163.8 30.1 166.6 27.7 169.6 27.7 172.6 27.7 175 30.1 175.8 33.9 175.8 34.2 175.5 34.5 175.2 34.5ZM169.3 21.6C160.9 21.6 155 28.6 155 37.2 155 46.4 161.8 52.8 169.6 52.8 172.9 52.8 175.9 52.2 178.7 50.5 179.1 50.2 179.3 49.6 179.1 49L177.7 46C177.4 45.5 176.7 45.2 176.1 45.4 174.3 46.2 172.3 46.7 169.9 46.7 166.7 46.7 163.9 44.4 163 40.6 163 40.3 163.3 40 163.6 40L182.1 40C182.8 40 183.4 39.6 183.5 38.9 183.5 38.8 183.5 38.8 183.5 38.7 183.5 38.7 183.5 38.7 183.5 38.6 183.6 38.2 183.6 37.7 183.6 37.2 183.6 28.6 178 21.6 169.3 21.6L169.3 21.6Z" fill="#0A0B09"/>
    <path d="M139.5 21.6C135.2 21.6 128.6 23.5 125.8 24.3 125.1 24.4 124.6 25 124.6 25.7L124.6 50.8C124.6 51.6 125.2 52.3 126 52.3L130.1 52.3C130.9 52.3 131.5 51.6 131.5 50.8L131.5 30C131.5 29.6 131.8 29.4 132 29.3 140.5 26.8 144.7 28.3 144.7 32.8L144.7 50.8C144.7 51.6 145.4 52.2 146.2 52.2L150.3 52.2C151 52.2 151.7 51.6 151.7 50.8L151.7 31C151.7 23.5 144.2 21.6 139.5 21.6" fill="#0A0B09"/>
    <path d="M105.8 46.7C101.3 46.7 97.6 42.5 97.6 37.2 97.6 32 101.3 27.7 105.8 27.7 110.4 27.7 114.1 32 114.1 37.2 114.1 42.5 110.4 46.7 105.8 46.7ZM105.8 21.6C97.2 21.6 90.2 28.6 90.2 37.2 90.2 45.8 97.2 52.8 105.8 52.8 114.4 52.8 121.4 45.8 121.4 37.2 121.4 28.6 114.4 21.6 105.8 21.6L105.8 21.6Z" fill="#0A0B09"/>
    <path d="M27.2 54.9C16.7 54.8 6.4 49.7 0 40.7 0 40.7 0 40.7 0 40.7 1.5 59.9 17.5 75 37.1 75 42.8 75 48.2 73.7 53.1 71.4 53.1 71.4 53.1 71.4 53.1 71.3 42.1 70.3 32.6 64 27.2 54.9" fill="#A1D6D8"/>
    <path d="M55.1 40.7C52.3 44.6 48.8 47.9 44.4 50.4 40 52.9 35.3 54.4 30.6 54.8 35.9 62.7 44.7 68 54.8 68.4 57.1 64 58.3 59.1 58.3 54.4 58.3 49.6 57.1 44.9 55.1 40.7" fill="#7FBB42"/>
    <path d="M58.2 7.1C58.2 7.1 58.2 7.1 58.1 7.1 60.2 11.7 61.3 16.5 61.3 21.2 61.3 27 59.8 32.7 56.9 37.8 59.8 42.8 61.3 48.6 61.3 54.4 61.3 59.1 60.2 63.9 58.2 68.4 58.2 68.4 58.2 68.4 58.2 68.4 68 61.7 74.3 50.5 74.3 37.8 74.3 25.1 68 13.9 58.2 7.1" fill="#D1DB36"/>
    <path d="M58.3 21.2C58.3 16.4 57.1 11.6 54.8 7.1 44.7 7.6 35.9 12.9 30.7 20.8 35.4 21.2 40 22.6 44.4 25.1 48.8 27.7 52.3 31 55 34.9 57.1 30.6 58.3 25.9 58.3 21.2" fill="#73AE42"/>
    <path d="M27.2 20.6C32.6 11.6 42.1 5.2 53.1 4.2 53.1 4.2 53.1 4.2 53 4.1 48.2 1.8 42.8 0.6 37.1 0.6 17.5 0.6 1.5 15.6 0 34.8 0 34.8 0 34.9 0 34.9 6.4 25.8 16.6 20.7 27.2 20.6" fill="#8AC692"/>
    <path d="M1.7 37.8C7.1 46.3 16.1 51.3 25.6 51.9 23.6 47.6 22.5 42.9 22.5 37.9 22.5 37.8 22.5 37.8 22.5 37.8 22.5 32.7 23.6 28 25.6 23.7 16.1 24.3 7.1 29.3 1.7 37.8" fill="#56A982"/>
  </g>
</svg>