<svg xmlns="http://www.w3.org/2000/svg" width="134" height="72" viewBox="0 0 134 72" aria-labelledby="monogram-title" role="img">
  <style>
    @media (prefers-color-scheme: dark) {
      .monogram { fill: white; }
    }
  </style>
  <title id="monogram-title">Matthew Anderson</title>
  <g style="fill: none; stroke-width: 1; stroke: none">
    <g fill="#373938" class="monogram">
        <path class="monogram-a" d="M102.1 0C102.9 0 103.4 0.4 103.7 1L103.8 1.1 133.8 68.4C134.4 69.6 133.7 70.9 132.3 71L132.1 71 128.1 71C127.3 71 126.7 70.5 126.5 70L101.9 14.4 101.1 14.4 76.6 69.9C76.4 70.4 75.9 70.9 75.1 71L74.9 71 70.9 71C69.5 71 68.7 69.8 69.1 68.6L69.2 68.4 99.4 1.1C99.7 0.6 100.1 0.1 100.9 0L101.1 0 102.1 0Z" opacity="0.25"/>
        <path class="monogram-m" d="M38.9 72C39.5 72 40.4 71.5 40.6 70.9L59 18.1 59.4 18.1 59.4 18.1 68.3 69.6C68.5 70.3 69.3 71 70.1 71L74.1 71C75.6 71 76.2 70 75.9 68.6L63 1.4C62.8 0.6 62 0 61.2 0L59.6 0C58.9 0 58.1 0.5 57.9 1.1L38.4 56.2 37.9 56.2 37.9 56.2 18.1 1.1C17.9 0.5 17.1 0 16.4 0L14.8 0C14 0 13.2 0.6 13 1.4L0.1 68.6C-0.2 70 0.4 71 1.9 71L5.9 71C6.7 71 7.6 70.3 7.7 69.6L16.4 18.1 16.8 18.1 16.8 18.1 35.4 70.9C35.6 71.5 36.5 72 37.1 72L38.9 72Z"/>
    </g>
  </g>
</svg>