<svg xmlns="http://www.w3.org/2000/svg" width="502" height="502" viewBox="0 0 502 502"><g stroke-width="2" stroke="#096" fill="none"><path d="M24.9 211.5l-.1 2.6 2.5 1.6 3.3-.9 3.3-3.3-.9-5.7-5.7-.9-2.6 4 .2 2.6M51 132.6l-.8 3.4 3.4 9.3 8.8-3.9 7.7-8.8-7.4-9.1.4-7.8-2.7-9.4-1.4-5.4-1.1-16.7-.8-4.3-1-2.4-2.5-1.8-1.8 2.4-1.2 1.8.4 2.7-.8 20.2.3 3.5.1 3 .3 20.6.1 2.7m144.7 236.8l11.1 4.7 4.7 2.5 4.5-2.7 3.2-4.5-1.6-6.1 1-13.1-1-7.1-.2-5.9 1.2-13.3-.1-7.1 1-8-.1-10.5 1.5-7.8.7-10.1v-6.2l.8-10 2.8-12.7 2.6-3.7 5.3-10-14.5-7-7.1-5.8-6.4 6.4-1.5 6.4.5 7.4-.6 11 .5 8-2.6 10.1v6.1l-5.1 10.1 1.4 12.5.3 1 1.1 12.8 2.2 10.2 1 6.9 1.8 9.2-2.5 10 .8 7.2-6.7 9.1m6.9-210.5l2.8 6.1 6.1 3.6 5-4.7.7-5 .5-6.2L219 140l.6-7.4-1.8-6.3-6.3-13.1-9.9 9.4-9.4 10 6.2 13.1.1.2 4.1 13M241.9 501l.5-4.6 1-16.1.7-5.6.2-6.5.9-12.5.2-7.3-.4-7.2-1.2-13.2-.3-5.9-1.7-4-4-3.5-5.5 1.9-2.8 5.6-.3 8.6-1 8.1-.2 9.6 1.1 8.7.8 9.6.9 8-5.3 12.4.2 1.8-2-.1-12.2 6.4-3.4 2.4-1.5 3.4M242.3 1l-.9 3.5-3.6 4.2-12.1 6.4-7.2 12.2-1 6 1.1 13.2-.7 7.1-.3 6.1.6 13.6-.3 6.6-1 5.4-5.4 13.2-6.7-11.9-.5-6.7-.9-8.1.5-10.5-1.2-7.7 1.2-7.6 1.1-12.2.9-6.5-1.3-6.9-1.4-11.1-1.9-8.3M1 275.1l5.6-5.4 2.2-5.5-.7-7.2L1 243.7"/><path d="M19.4 211.5l-.3 8.2 8.2 5.3 10.5-3 10.6-10.5-.9-6.1 6.1-1.5 8.6-10.1 10.6-8.6.1-7.1 7-8.9L83 162l.3-3.1v-3.3l3.3-16.3v-6.7l-1.5-5.2-5.2-4.9-7.7-8.5-2.2-7.7-3.3-13.1-.1-.3-2.4-13-3.1-7.4-7.5-5.5-5.6 7.3-3.7 5.6 1.3 8.1-.4 9.8.9 8.5.2 7.3.2 11.8.1 7.2-2 9 4.7 13-7.5 4.3-4.2 10.3-.6 6.4-2.6 9.6-1.3 5.8-5.8-.9-8.5 12.9.6 8.5m84.8-157.9l.3 1.8 1.8 4.2 2.4-3.5.2-2.5.4-3-3-6.2-2 7.3-.1 1.9M125.9 1v6.7l6.7 4.9 8.7-2.8 4-8.8m32.1 368.4l2.2 5.6 5.6 3.3 12 5.5 5.2 2.8 9.1 4.7 10.7-6.2 3.6-1.4 2.6-4.9 6.7-9.4-1-3.7-5.9-12.9-1.5-9.7-.3-11.5-.5-2.9-.2-11.9 1.4-10.7 2.4-7.3 1.6-8.3.4-6.4L234 268l.3-3.8.6-3 2.9-4 8.9-10.5.7-8.9-2.3-7.2-7.3-2.4-10.6-6-12.5-10.7.7-3.8-3.9-9.9-7 6.7-2.3 7-8.6 8.4 2 7.6-2.4 10.3.6 8.7 1.4 7.7.5 10-2.1 8.4-8.4 12.4-4.5.9-.9 4.6.7 4.7 4.7 16.4 1 4.2.1 1 .3 1.4 5 18.5 1.2 6.4-1.5 6.1-6.1 7-6.9 6.3-.9 6.9M249.9 1l-2.6 9.5-9.5 11-3.8 2-2.2 3.8-1.1 7.2-3 8.9-1.1 10.2-.5 11.8-.3 2.5-.4 12-2.3 11.6-2.1 5.3-2.7 9.5 4.5 11.2 1.2 2.6 3.7 12.5-.9 11.1-.3 3.8-1 11.4-1.7 12.2-12.3 11.5-6.2-3.6-11.8-2.1v-9.7l-3.8-8.3-1.1-3.4-3.4-5.9-9.6-7.4-1.4-9.6 3.3-7.7 7.7-6.2 6-6.4 6.4-6-2.3-10.2 1.5-4.6-1-11.6-1-9.5-3.1-10.3-1-6.5 1-6.5 2.2-11.1 1.2-8.7-1.6-8.3-3.8-13.5-1-4.5m60.7 500l1.4-12.9v-.5l1.5-12.9.5-11.4v-3.5l.4-11.4-.7-11.7-.1-2.9-.7-11.7-4.1-9.8-9.8-8.6-12.4 4.4-2.4-.9.6 2.8-6.3 12.1-.2 5.6 1 14.1-.1 6.6.9 7.4 1.6 9.9 1.1 9-3 7-7.1 3.7-9.2 6.4-4 9.2m82.9-315.8l3.3 5.9 6 3 2.9-6 .5-2.9.4-3.8-1.2-19.9.3-2.6-1-1.9-1.9-.9-2.3.6-1.3 2.2-1.3 4.9-1.6 15-2.8 6.4M1 231.4l12.5-7.3.5-12.6-.9-12L1 186.4M29.5 501l1.9-4.1 6.8-11.3 3.2-10.9-4.8-9.3-9.3-.6-11.4-1.5-12.1 8.6L1 454.1M142 501l5.6-11.3 1.3-5 3.6-10-2.2-8.6-1.8-7.3-2.6-10.4 2.7-10.3 10.3-4.9 7.7-3.5 6.4-7.6-5-9.2-9.1-3.8-12.8-.5-1.3-.6-12.2-1.3-5 10.4-3 5-7.1 11.2-11.2 14.1-.6.4-.2.6-13.2 12.3-12.4 5.3-12.3-5.2-11.5-12.4-.5-2-2-2.6-11-10.8h-4.4l-10.9-3.7-12 7.1-13.4 11.1-.9.7m40.4-52.5l2.2 10 10 6.8 9.2-7.6 3.3-9.2-4.4-8-8.1-7.1-8.8 6.3-3.4 8.8"/><path d="M1 184.9l.7-.4 22.3-2.6.5-20.1 1.3-2.9-.5-2 2-1.7 12.2-10.4 2.8-12.2L42 121v-3.1l-.3-11.6-1.4-13-.2-.6-2-12.8 6.1-9.4 9.4-12.3 12.5 9.3 5.2 12.4 1.3 7.3 6.9 18.6.1.5.1.2.2.3 9 8.5 4.5 3.8-.1.5 3.6 13 .1 9.3 2.2 9.9.1 7.1-.7 7.6 2.9 13.9-.8 4.8-8.6 12.2-12.2-1.9-8.7 7.3-7.6 8.7-1.4 8.6-8.6 11.1-3.4 3.3-18-1.6-4.9 1.5-10-6.6 1.4 10 1.6 7.1-2.6 9.6.9 9.7-5 12.5L1 288.8m123.3-51l-1.9 10.2 10.2 9.9 11.6-8.5 3.3-.1 11.4-3.7L169 248l4.6-10.2-7.1-7.6-7.6-6.2-9.5-2.9-13.1-9.6-1.9-1.8-1.8-2.7-4.5.1 1.7 4.4.2 2.6-6 15.2.3 8.5"/><path d="M190 501l3.8-8.5.4-8.8 14.3-6 3-2.1.6-.3.3-.6-.1-.8-.8-4.7-7.6-13.2-1.9-7.6-3-12.5-.2-1.2-3.5-12.6-.9-9.2V405l-.7-9.3-5.5-2.9-3-1.4-10.4-6.1-5.1-.4.7-3.9-4.5-11.6 1.1-8.1-8.1-13.8-3.9-.5-.5-3.9-.4-4.7 4.8-2.2 7.5-11.9-.3-7.5-1.2-6.1-.5-14.7-.8-5.5 1.2-5.9-5.9-2.1-6.8 1.1-1.9 6.9-4.8 12.8-12.8 12.5-2.6-1.6-4.5 2.6-17.2 2-2-.2-.8-1 .2-.8-.1-.6.7-4.8 9.5-11.4-1.8-9.5 2-9.8-2.9-9.7 6.1-6.8-6.3-6.7-6.6 3.5-8.7-14.5-4-8.7 2.4-10.3 1.8-7.5 1.9-8.5-4.8-11.4 11.4-5.9 9 .1 3.4-9.1 7.2-6.6 6.7-2.5 7.6-9.6 1.9-7.6-1.7-7.8-7.8-2-9.3-7.3-1.6-9.2.1-10.8 1.5-6.2.1-9.3-2.5-11.7 11.7-4.5 11.8 1.7 5-2.3 9.5 8.7L167 88l6.9 3.3 11.3-1.9 2.3-7.2-.2-2.3-.2-1.8-1.9-6.3-8.7-.5-13.3 4.3-4.3-.6-7.9-13.5.7-7.9-7.9-11.2-11.2-7.2-8.8 9.7-1 8.7-1 10.9 3.1 7.8-2.5 7.6-4.5 11.7-11.6-2.5-6.2-3 .4-6.2-1.9-7.7-3.3-7.6-1.8-11 .6-12.1.7-2.8.9-11.4 3.5-7 7.1-6.5 7.4-5.4V1"/><path d="M177.6 264.2l1.9 5.7 5.7-1.2 1.8-2.7.5-1.8-.1-2.2-2.2-12.3-10 4.4 2.4 10.1m58.2 78.9l.3 1.7 1.7 3.8 9 3.5-.5-9 2.9-11.4 1.2-2.4 1.7-12.5-.1-12.1 12.2-3.1 10.2-.9.3-10.2-1.8-8.7-8.7-6.6-8.6 6.7-6.3 8.6v11.4l-11.5-2.9-4.4 13.4-.5 4.4.1 4.9 2.8 19.4v2m-5-131.6l3.8 3.3 3.2 1.8 7.6 2.4 6.6-7.5-5.4-8.8-8.8-3.7-6 6.5-1 6"/><path d="M257.4 1l-2.5 9.3.5 8.3-6.4 8.7-3.3 7.9-7.9 9.3-2.2 6.8-.3 2.3-.1 2.7-2.2 18.8-.1 4.8-1.2 6.2-.8 13.2-1.9 7 2.5 6.3 3.5 17.1.8 2.9-.2 2.2-1.5 20.3-.4 3.8-.6 4.8 4.7 8.5 11.6-1.7 5.3-2.2 9.5-2.1 2.6-4.7.7-2.6 4.6-7.9-4.9-15.3 12.4 7.7 10.9-2.7 12.5 5.7 6.6 12.5-1.1 8.3-2.2 7.6-1 10.4-2.1 12.7-.8 1.7-3.6 11.9 4.9 13.1 1.6 1.8 9.2 11.4-.6 3-2.2 18.3-1.5 5.1 2 4.6 4.1 21.2.2.5-14.9 11.1-11.1 6.8-9.3-.9.4 9.3 2.2 6.6 6.7 4.3 6.9 8.5 2 6.9-1.7 7.2-7.2 7.7-12.4-2.5-1.5.1-12.4-1.7-11.4 4.1-.3 11.4-2.9 11.8-2.1 4.9-3.2 9.6 11 8.9 1.4 10 3.1 7.5.3 4 .6 18.8.2 3.5-.1 3.3-.1 19.5-.1 3.5-.5 4.1-2.6 15.6-.7 6.6"/><path d="M259 237.8l-.5 5.7 5.7 9.9 9.1-6.4 2.6-9.2-3-8.7-8.7-5.5-7.6 6.6 2.4 7.6M301.5 501l-1.3-9.7v-6.9l-1-9.7.1-8.9.3-8.4.1-9 .9-10.1.1-6 1-10.2.3-11.6v-3.2l.3-11.6-3-8.8-8.8-8-8.6 8.3-2.2 8.5-1.3 12.1v2.2l-1.5 12.1-.5 12.2-.2 2-.4 12.1.3 11.9v2.4l.4 12 3.2 10.8v4.7l2 10.8m-9.4-421.1l10.7 7.6 7.5 5.9 7.5-5.9 4.2-7.6-6.4-5.3-5.3-2.1-5.5 1.9-12.7 5.5m94.9 236.9l.2 2 2 2.2 1.5-2.8 3.1-1.4-1.1-3.5-3.5-2.7-2.5 3.7.3 2.5m-45.7-52.6l12.3 9.3 9.3-1.6 6-1.7 5-6 .6-11.6-.3-3.4.7-11.4 3.5-10.8 10.8-7.7 6.9-.9.5-6.9-.9-6.5-6.5 1.7-13.1-8.4-4.9-13.1-2.5-5.8-5.8-7.1-7.4 5.5-1.1 7.4.1 8.4 1.1 10.6.1 7.3-4.7 11.9-.3 2.2-11.4 12.2v2.7l2 18.9v4.8M388.6 1l-5.5 12.7v.9l-1.4.5-12.3 7.9-3.8.5-1.4 3.8 1.8 3.4 3.4 1.5 8.9 4 6.9 1.6 10.5 10.4 3.5-17.5.9-3.4 4.2-8.5-.1-9.3 9.5-.1 8.4-4.3 6.2 2.1 14.6-.7 5.5 6.7 5.2-7 19.1-3.3 2-.8.5-.6 15.1-.5m-97.2 236.8l1.2 1.5 1.4.7 4.9 2.7 3-4.9-2.7-5.1-5.2 2.7-2.9-.5.3 2.9m-5.4-52.6l-.6 8.6 8.6 2.6 10.6 4.6 6.9 10.5-1.2 10 10.1 7.9 3.8-14 2-3.9-1.2-4.7 1.2-15.7-.8-5.9.2-5.3-5.2-8.5-8.3-4.2-4-8.3-5.7-8.4-8.4-8.5-6.2 10.6-.4 6.3-.7 7.3.1 11.8-.8 7.2m0-105.3l1.5 6.5 6.5 8.7 6.4-8.8-1-6.4-1.2-4.2-4.2-17.6-7.3 14.5-.7 7.3m31.6 210.6l1.3 1.5 1.5.2h1.7l1.2-1.7-.9-2.1 1.7-20.5-.7-3.7.1-3.2-3.1-15.6-10.2 8.6 1.2 10.2 2.7 6.2 2.4 16.2 1.1 3.9M1 369.8l.3-.1.3-.3-.2-.4H1m0-145.9l7.3-4.3.2-7.3-.5-7-7-7.5m0-62l3.8 1.4 3.1-3.8-3.5-3.4-3.4.1m18.7 187.5l2.1 5.6 5.5 8.9 9.1 2.7 10.1 9.1 4.9 2.3h4.5l.7-2.3 16.2-7.2 7.1 1.7 12.4-6.8 3.4 1.7-2.2-2.9 3-12.8-.4-10.2.9-6.9-.5-9.2-3.7-12.9-.9-1.4-5.8-12-2.2-4-4-9.8-8.4 5.3-11.5 2.1-6.4 2.2-3.9.2-11.1 4-5.5 5.8-5.8 6.2-1.6 12.6-1.8 1.7-1 4.4-1.3 16.2-1.9 5.7M43.7 1l3.7 6.2 6 19.9.1.2-16.9 9.3-9.3-2.9-2.8-3.6-.8-2.8 1.2-2.4 1.3-22.8.3-1.1m52.6 210.5l-.2 1.1 1 3.7.9-3.9.2-.9-.3-.7-.8-.1-.4.4-.4.4m-.7-131.6l.2 1.4 1.3 3.6 3.6-1.4.2-3.6-.8-2.9.5-19.9-.6-3.5.2-3-3.1-19.4-10.7 11.7 1.2 10.7 6.4 3.2.5 20.5 1.1 2.6"/><path d="M91.4 1l-6.1 5.3-5.4 17.5h-3.4L56 27.3l-1.4.9-1-.6-7 19 3.5 7-9.8 13-.4.8-8 12.5.8 5.4 3.6 12 1 9 .2 10.2.2 5.7.2 10.4-2 8.6-8.6 7.4-5.6 4.7 1.5 5.6-3.8 7.9-.2 10.3-11.4 1.3-6.8 3.8M350.4 501l5.4-12.7v-.9l1.2-.3 12.4-7.5 1.8-3.2 3.2-1.7.4-5.4 5-10.5.4-10.4-.9-9.9-9.9-7-12.7 4.2-6.7 12.7.5 7.4-7.4 7.6-12.3-1.1-13.2 12.4-.4.4h-.4l-.1-.3v-.2l.1-6.4 8-11.8-6.1-8 4-6 6.3-8.1 4.7-12.2-.2-9.7-1.1-6-.2-10.7 1-9.9.9-7.4 1-9-10.9-7.4-2.1-13.6-2.4-5.3-.7-2.2.1-21.8-.5-2.3 2.3-4.1 5.2-13 10.7-9.2 2.5-3.8 3.8-.7 6.2-1.7 18.1 4.1 2-3.5 10-4.4 3.8-2.5 12.5-2.4 5.3 9.6 1.6 5.3 8.7 10.7 10.8 2 12.6-.1 8.6-12.6-4.1-9.2-3.2-4.8-2.5-12.3.5-12-.7-3.1.8-11.3 3.9-10.4 7.8-13.3 1.3-2.6-.4-1.6-7.1-16-1.2-8.7.4-9.5 9.6-12.1 1.4-3.3.1-1.4v-1.5l-1.5-2.7-11.8-7.6-1.9-.9-1.4-2.4-8.2-11.2-.4-2.6 4.6-16.4-.5-7.3-1.2-5.6-5.5-4.1-9.7-7-1.6-9.7-3.2-11.8-.8-3.4-2.9-11.1 2.6-10.7.8-4.1 3-11.5 3.9-7.8 7.9-4 8.8 2.9 8.2 8.9 3.9 5.4 5.4 3.9 2.7-6.5 7.4-2.8 7.5-8.7 8.7-3.9 6.7-7 13.4-.5L501 5"/><path d="M348 369.4l8.6 12.8 12.8 4.1 3-13.9-.3-3-.4-2.2-2.3-9.9-7.9 4.2-13.5 7.9m12.4-52.6l1 8 8 8.8 5.8-11 12.7-5.8-3.8-11.6.5-3.6-9-4.9-6.2-5-10.1 15 1.1 10.1m8.5-131.6l.1.4.4.2.5-.1.1-.5v-.6l4.4-20.8.4-4.9.4-5.8-5.8-14.4-9.1 11.1-2.1 9.1 4.8 6.4 5.5 19 .4.9m-5.7-78.9l.8 5.4 5.4 9.9 4.4-11 1.2-4.3-2.1-3.6 1.2-18.1-1.2-4.7.5-3.9-4-18.4-10.2 12.1v10.2l1.6 8.7 1.2 10.3 1.2 7.4M365.4 1l1.3 2.7 2.7-.3 1.5-1 .6-1.4m73.9 315.8l1.1 1.9 1.9.6h2.4v-2.5l-.3-2.1-2.1-7.5-10-.3 7 9.9m29.1 52.6l.1.1.1.4h.4l.3-.5-.6-.1.6-25.5-.3-.7v-.5l-.4-2.2-2.7.1v2.6l1.5 1.1.9 25 .1.2M1 214.7l2-1.2.1-2-.2-1.9-1.9-2.1m0-69.7l8.2 3 6.7-8.2-7.5-7.4-7.4.3"/><path d="M24.5 1l-1 3.9-1 17.6-2.5 4.8 1.6 5.7 5.7 7.1 10.3 3.3 5.2 10.2-6.7 8.9-8.8 14.4-1 2.1-.1.9.1 1.1 1 3.6 5 16.7.6 5 .1 5.6.4 14.6.1 6.1-1.1 5-5.1 4.4-9.1 7.7 2.4 9.2-6.3 13v.3l-.4.1L1 179.4m65.8 137.4l5.6 7.5 7.5 1.8 6-3.3 1.4-6-.2-7.1-3.4-15.5-.2-3.7-.8-2.8-2.8-4.4-4.7 2.4-3.3 4.8-1.9 9.9-1.9 4.5-1.3 11.9m269.4 26.3l2.2 4.8 4.7 3.8 5.5-3.1 10.9-5.5-6.8-9.6 2.3-4.8-1.4-11.9-1-9.5-9.5-8.7-9.5 8.7-5.3 9.5 2.5 12.3 1.8 3.5 3.6 10.5M501 9.3l-12.8 4.5h-.7l-12.8 13.5h0l-19.2 7.1-7.1 17-8.3-6-6-3.8-3.8-6.1-6.1-8.2-1-1.1-1.1-.4-1.1.5-.5 1-.5 2.1-5.2 17-1.7 7.2 1.8 7.1 5.1 17.2.6 2 .2 1.3 1.3 1 8.6 6.4 7.8 1.2-2.3 4.3 2.6 12.2.7 8.8 8.5 17.1v.4l.2.2.2.1 9.3 16.6v9.4l-.6 8.7-6.6 15.5-.3 2.1 2.9 4.7 6.1 10.8 9 10.8-6.3 12.8-.2.6-4.7 4.3-8.6 8.2-.2.3-.1.1v.3l-5.9 19.9-.3 6.2 1.1 5.3 5.4 8.2 8.6 4.1 4.8 8.7 2.2 10.7.5 5.4 1.7 10.2.1 8.4h8.4l3.1 14.8-.5 3.1 2 4.6-.4 17.5 16.7 4.2-8 13-12.9 1.9-3.8-11.1-.7-3.8-2.8-7.2-.4-11.4-10.3-7.7v-8.4h-8.3l-12.3-3.9-3 1.2.3-3.9-6.7-11.3-1.9-2.7h-2.7l-3.4-.6-6.2 3.3-13.7 3.1-3.1-1.3-5.1 3.3-11 5.1-6.6 12.6-2.5 3.5.3 1.4 4.4 19.2 1.1 5.7.7 7.6-3 14.1.9 4.6 6.4 11.9.1 2.5 2.2-.2 12.1 5.5 3.3 3.4 1.8 3.3 2.4 7.4-4.3 15.7 15.1 3.2 3 5.1-1 15.1 1.4 6.1-15.4 6.2-6.3 4.5-9.2 6.4-6.4 9.2"/><path d="M1 140.6l12.6 4.6 10.3-12.6-11.6-11.3-11.3.4"/><path d="M22.6 1l-1.9 6.6-.6 12.5-3.8 7.2 2.4 8.6 8.6 10.6 5.4 1.7 2.7 5.4-3.5 4.7-4.6 7.5-4.6 9.5-.5 4.6.1 5 5 16.9 1 3.4.2 1.1v1.1l.6 23.4.1 1.8-.4 1.5-1.5 1.3-12.7 10.8 3.4 12.7-5.5 11.5L1 176.7m336.9 140.1l.9 4.3 4.3 8.3 4.2-8.4-.5-4.2-.4-3.3-3.3-3.1-3.3 3.1-1.9 3.3M501 398.3l-4.5 2L476 397l.6 23.1-1 2 .1 1-1 .5-2.1.5-.9-2 .8-2.3.7-22.6.3-1.5-.3-1.5-6-17.3-1.3-7.5-4.9-12.6-12.6-11-4.8 2.1-15 1.8-6.5 10.7-3.8-13.6v-3.7l-4.7-8.4.2-9.6-8 1.8-10.1-4-12.3 7.9-8.5 12.3 1.5 7 2.3 10.1 1.8 9.2 1.2 12.3-.5 2.2 2.3 11.8 4.3 8 7.9 3.6 7.3 7.5 3.9 7.3 3.7 11.4 11.5 7.8 6.5.5L444 444l4.4.4 2.7 1.2-.6 2.8-.4 1.7-1.7 15-4.6 5-1.5 4.6-12.6 7.6-7.6 3.8-10 4.9-12.9 10M501 367.6l-5.1-3.3-12.8-3.3.2-9.3-3.8-8.6.9-5.7-3.9-18.8.7-1.8 1-3.5-.9-20.2 1.9-2.6-.8-3.7-.6-19.5-.5-3.1.6-3.2 1.6-18.4 1.2-4.8 2-8 1.4-8.8 3.2-9.5-8.4-4.2-4.2-10.3-5.5-6.3-3.3-5.5 1-7.7-2.1-8.7.7-9.9v-9.2l9.2-15.7.5-.9-.1-.5-.1-.4-.3.1-.8-.5-19.5-5.3-5.5-19.7-.3-.5.1-.3 3-22.7.9-3.4-.7-3.4.3-19.1-.6-3.8 5.9-9.1 2.4-5.7 5.2-1.9 9.6-5.8 2.4-1.3 3.8-2.5 9.9-10.2 10.2-3.6"/><path d="M1 174l9.7-5.4 4.7-9.7-3-11.4L1 143.4M20.6 1L18 10.3l-.4 7.3-5 9.7 3.3 11.5L27.3 53l.5.1.3.5-.4.5-.4.7L19 71.6l-.7 8.3.1 8.9 3.6 12.1.2 5.4-10 11.2-11.2.4M501 401l-9.3 4-9.2-1.5.3 10.5-4.3 8.1.4 4.1-4.2 2.2-8.5 2.1-3.7-8.4 3.1-9.2.2-8.3 1.9-8.9-2.2-9.1-2-6-2-11.2-3.6-9.5-9.5-8.2-12.4 5.4-9.7 12.3-1.4 2.8-2.8 1.7-4.1-.5-.8-4v-4.8l-3.6-13-.1-8.5-6.3-11.4-11.5-4.5-9.7 6.2-6.7 9.7 2.6 12.5.3 1.1 2.5 12.7 1 10.1 5.5 11.7.9 4.5 1.3 2.4 2.3 1.1 11.2 11.6 6.2 11.3 2.2 6.8 6.8 4.6 12.3.9 1.5.1 12.5 1.1 8.7 4-1.9 8.8-1.1 5.7L452 471l-.6 3.7.1 3.1-3.1 8-9.7 5.6-12.8 5.7-3.8 1.9-1.4.7-1.7 1.3m82-280.2l-5 12-1.3 5-2.1 8.4-2.4 7.1-2.1 10.9 1.8 11 2.3 6.4 2 8.9-8.4 11.1.2 3.9-3.2 11.3-2.2 5.9 2.5 12-1.3 8.4 5.4 12.5v1.3l1.8.5 12 7.6m0-154.9l-4.7-3.2-11.2-5.8-3.9-9.4-4-6.5 1.5-4-4-14.7-1.5-6.1.1-1.5v-1.4l1.4-2.4 8.3-14.2-1.8-8.3-1.4-5.2-5.1.3-11.5-6.6-2.6-.7-.8-2.7-6.6-11.4 1.2-6.1 1.7-12.5 2-7.8-1.6-8.1.1-9.9-1.1-8.3 7.5-11.7 11.7-7 4.9-2.7 7.5-4.9 6.9-7 7-2.5"/><path d="M501 104.8l-1.1.4-.3 1.1-.5 1.8 1.9.2M1 171.2l7.9-4.4 3.9-7.9-2.5-9.3-9.3-3.4M18.6 1l-3.3 12-.1 2.2-6.3 12.1L12 38.4v4.2l7.5 11-1.9 9.7-2.3 4.7-1 11.9.2 12.8.3 1.1.4 12.5-6.7 7.5-7.5.3m387.9 255.3l.6 6.2 6.2 13.2 8.3-1.4-2.1 8.3 9.8 10.4 4.1 9.7 3.4 6.3.7 2.1 2.2 1.5 3.9.3 18 .4 4.4.4 8.8 4.1-3.9-8.8 2.5-7.5 3.7-7.7 2.4-11.2-2.6-10.9-.3-4.7-1.8-10.7-2.5-6.4-6.3-5.5-8.3 3.7-6.5 8.2-4 7.6-7.5 4.4-10.9-1.1-2.2-10.9-.1-13.1v-.1l-.1-13.1-4.7-8.4-8.4-3.3-7.1 4.6-4.9 7.1 2.1 10 1.4 7.8 1.7 8.5M501 447.3l-1.8-.7-.4 1.8.6 1.5 1.6 5.5m0-51.7l-12.8 5.5-6.8 12.9.6 7.3-7.3 3.8-12.2 3-2.7 12.2-1.8 9.6-1 8.1-1.5 8.6.2 7.3-7.3 19h0-.1M501 295.6l-9.8 11.4-2.7 9.8-3.9 9.9 1.1 5.4-1.7 11 5.1 11.9 11.9 7.5m0-105.1l-1.7 5-.3 1.8.2 1.7 1.8 5.1m0-106.4l-13 7.3h-.3l.1.2-4.9 13.1 6.9 11.2 11.2 7.7"/><path d="M501 99.4l-5.1 1.8-1.6 5.1-2 8.6 8.7.8"/><path d="M501 22.1l-3.9 1.3-3.7 3.9-11.3 7.4-7.4 3.9-9.4 5.7-6 9.3 1.8 12.8v.8l2.5 12.7-3.1 12.2-.3 2.3-2.5 11.9L464 117l10.7 6.2 10-.6 2.5 10 2.5 11.3 11.3 7.7M1 168.5l6.2-3.4 3-6.2-2-7.2-7.2-2.6M16.7 1l-3.4 12.3-3.5 5.2-4.6 8.8 1.7 5.9-.1 14.6 3.9 5.8-1.5 8.2 2 8-.9 10.1.2 9.5-2.4 9.8.2 7.1-3.4 3.8-3.9.2m392.1 259.1l.3 2.4 2.3 5.1 6.4-1.1-1.3-6.4v-5l3.3-12.9-.1-8.4-2.9-5.3-5.4-2.1-4.5 2.9-3.1 4.5 1.3 6.3 3.1 16.8.6 3.2m19.5 26.3l4.6 4.9 4.9 11.5 8.4 1.5 9.9.5 8 1.1 6.3-13.1 1.3-6.4-1.4-6.2-.8-14.7-1-5.4-1.2-3.2-3.2-2.8-4.2 1.8-3.3 4.2-6.5 12.4-12.3 7.2-7.6-.8-1.9 7.5m88.4 47.9l-8-3.2-1.8 8 2.7 7.1 4.9 17 .7 2.2.1 1.4 1.4.9m0-70.6l-10.9 4.7-5.8 11 .9 10.5-10.5 5.4-8.3 2.1-1.9 8.3L462 461l-.2.8-2.2 12.9.3 11.5-2.1 5.4.5 9.4M501 305.1l-5.4 6.3-1.5 5.4-4.4 11.3-1.5 2.2-1.9 12.8 4.4 10.3 10.3 6.5m0-188.8l-9 5.1-3.4 9 4.7 7.7 7.7 5.2"/><path d="M501 123.2l-10.4-1 2.7 10.4 1.4 6.3 6.3 4.3m0-49.1l-9.1 3.1-2.9 9.1-2.6 11.7-11.7.6-7.9-4.5-4.5-7.8 2.1-10.3 2.9-8.6 1.9-7.5-1.4-6.8-3.2-9.4-1.4-10.1 4.5-7 7-4.2 9.8-5.2 15.1-9.9.7-.7.7-.3M1 165.7l4.4-2.4 2.1-4.4-1.3-5.2-5.2-1.8M14.7 1l-3 10.7L2 26.3l-.5 1 .2.7-.1 25 .4.6-.1.9 4.9 19.6-.5 5.8.1 5.5-5.1 20.5.1.4-.2.2H1m391.5 236.6l.5 2.7 2.7 14.7 3.6-13.8v-3.6l-1.3-2.3-2.3-.9-1.9 1.3-1.3 1.9m36.6 52.6l15.2 4.1 4.1.6 1.5-3.2.3-1.5-.4-1.4-1.3-24.7v-.3h-.2l-.1.1-.3.4-3.1 22.4-15.7 3.5m71.9 92l-7.8-5.2-.5-7.8-4-12.3-.4-1.3-4.7-12.7 2.6-11.6-11.5 6-4.5 1.1-1 4.5-1.3 6.8-2.6 10.1-1.6 9.4.3 10.7 3.9 8.8.4 6.8m32.7-91.9l-9 3.9-4.8 9.1 1.1 12.7 12.7 5.1m0-125.3l-1 1.2-.3 1-.8 2.1-8.7 13.4-1.7 10.8 3.8 8.7 8.7 5.6m0-179.8l-4.9 2.8-1.8 4.8 2.6 4.1 4.1 2.9"/><path d="M501 130.6l-2.2-.2.6 2.2.3 1.3 1.3.9m0-46.1l-13.1 4.5-4.2 13.1-1.6 7.4-7.4.4-5-2.9-2.9-4.9 1.4-6.5 6.5-19.8 1.7 1.7-1.7-1.8h0L468 60.3l-.9-6.7L470 49l4.7-2.8 12.3-6.6 4.9-3.2 9.1-5.7M1 163l2.6-1.5 1.3-2.6-.8-3.1-3.1-1.1m0-67.9l1.3-5.5v-1.4l.2-1.4L1 72.7M1 24l9.2-13.8L12.8 1M501 498.3l-8-5.3-2.8 8m-22.4-26.3l.2 6.7 6.7 14.9 12-9.6-.7-12-2.8-8.5-6.5-15.8-.7-2 .4-1.7-1.7.9-.7.1-.1.7-.2 1-4.9 19.4-1 5.9m33.2-62.9l-7.2 3.1-3.7 7.2.8 10 10.1 4m0-115.5l-8.9 13.6-1.4 8.9 3.1 7.2 7.2 4.5m0-170.7l-.7.4-.2.7.3.6.6.4"/><path d="M471.4 106.3l1.2 2 2.1 1.2 3.1-.1.7-3.1 1.8-5.6-5.6-5.4-2.7 8.3-.6 2.7M501 35.1l-11.4 7.1-7 3.5-7.9 4.2-2.3 1.4-1.5 2.3.5 3.4 3.3 9.6 6 7.4 10 5.9 5.1 5.3 5.2-1.8M1 160.3l.9-.5.4-.9-.3-1-1-.4M1 20.2L8.7 8.7 10.8 1m461.1 473.7l.1 2.7 2.7 6 4.8-3.9-.3-4.8-1.1-3.4-3.4-8.4-2.4 9.4-.4 2.4m29.1-60.2l-5.3 2.3-2.7 5.3.6 7.4 7.4 2.9m0-106.9l-7 10.6-1 7 2.4 5.6 5.6 3.6"/><path d="M501 39.6l-8.7 5.4-17.5 8.6 1 1.1L486.6 68l6 3.5 8.4 5.8M1 16.3l6.1-9.2L8.8 1M501 417.2l-3.4 1.5-1.8 3.4.5 4.7 4.7 1.9m0-98.3l-5 7.7-.8 5 1.8 4.1 4 2.5"/><path d="M501 44l-5.9 3.7-12.1 5.9 8.4 9.7 9.6 6.6M1 12.5l4.6-6.9L6.9 1M501 419.9l-1.5.7-.8 1.5.2 2 2.1.9m0-89.7l-3.1 4.7-.5 3.1 1.1 2.5 2.5 1.6"/><path d="M501 48.4l-3.2 2-6.5 3.2 4.5 5.3 5.2 3.5M1 8.7l3.1-4.6.8-3.1M501 340.2l-1.2 1.8-.1 1.1.4.9.9.6"/><path d="M501 52.8l-.5.3-1 .5.7.9.8.5M1 4.8l1.5-2.3L3 1"/></g></svg>