<svg xmlns="http://www.w3.org/2000/svg" width="502" height="502" viewBox="0 0 502 502">
  <title>
    contours-seattle
  </title>
  <g fill="none">
    <g transform="translate(0 1)" style="stroke-width:2;stroke:#096">
      <polyline points="24.9 210.5 24.8 213.1 27.3 214.7 30.6 213.8 33.9 210.5 33 204.8 27.3 203.9 24.7 207.9 24.9 210.5"/>
      <polyline points="51 131.6 50.2 135 53.6 144.3 62.4 140.4 70.1 131.6 62.7 122.5 63.1 114.7 60.4 105.3 59 99.9 57.9 83.2 57.1 78.9 56.1 76.5 53.6 74.7 51.8 77.1 50.6 78.9 51 81.6 50.2 101.8 50.5 105.3 50.6 108.3 50.9 128.9 51 131.6"/>
      <polyline points="195.7 368.4 206.8 373.1 211.5 375.6 216 372.9 219.2 368.4 217.6 362.3 218.6 349.2 217.6 342.1 217.4 336.2 218.6 322.9 218.5 315.8 219.5 307.8 219.4 297.3 220.9 289.5 221.6 279.4 221.6 273.2 222.4 263.2 225.2 250.5 227.8 246.8 233.1 236.8 218.6 229.8 211.5 224 205.1 230.4 203.6 236.8 204.1 244.2 203.5 255.2 204 263.2 201.4 273.3 201.4 279.4 196.3 289.5 197.7 302 198 303 199.1 315.8 201.3 326 202.3 332.9 204.1 342.1 201.6 352.1 202.4 359.3 195.7 368.4"/>
      <polyline points="202.6 157.9 205.4 164 211.5 167.6 216.5 162.9 217.2 157.9 217.7 151.7 219 139 219.6 131.6 217.8 125.3 211.5 112.2 201.6 121.6 192.2 131.6 198.4 144.7 198.5 144.9 202.6 157.9"/>
      <polyline points="241.9 500 242.4 495.4 243.4 479.3 244.1 473.7 244.3 467.2 245.2 454.7 245.4 447.4 245 440.2 243.8 427 243.5 421.1 241.8 417.1 237.8 413.6 232.3 415.5 229.5 421.1 229.2 429.7 228.2 437.8 228 447.4 229.1 456.1 229.9 465.7 230.8 473.7 225.5 486.1 225.7 487.9 223.7 487.8 211.5 494.2 208.1 496.6 206.6 500"/>
      <polyline points="242.3 0 241.4 3.5 237.8 7.7 225.7 14.1 218.5 26.3 217.5 32.3 218.6 45.5 217.9 52.6 217.6 58.7 218.2 72.3 217.9 78.9 216.9 84.3 211.5 97.5 204.8 85.6 204.3 78.9 203.4 70.8 203.9 60.3 202.7 52.6 203.9 45 205 32.8 205.9 26.3 204.6 19.4 203.2 8.3 201.3 0"/>
      <polyline points="1 274.1 6.6 268.7 8.8 263.2 8.1 256 1 242.7"/>
      <polyline points="19.4 210.5 19.1 218.7 27.3 224 37.8 221 48.4 210.5 47.5 204.4 53.6 202.9 62.2 192.8 72.8 184.2 72.9 177.1 79.9 168.2 83 161 83.3 157.9 83.3 154.6 86.6 138.3 86.6 131.6 85.1 126.4 79.9 121.5 72.2 113 70 105.3 66.7 92.2 66.6 91.9 64.2 78.9 61.1 71.5 53.6 66 48 73.3 44.3 78.9 45.6 87 45.2 96.8 46.1 105.3 46.3 112.6 46.5 124.4 46.6 131.6 44.6 140.6 49.3 153.6 41.8 157.9 37.6 168.2 37 174.6 34.4 184.2 33.1 190 27.3 189.1 18.8 202 19.4 210.5"/>
      <polyline points="104.2 52.6 104.5 54.4 106.3 58.6 108.7 55.1 108.9 52.6 109.3 49.6 106.3 43.4 104.3 50.7 104.2 52.6"/>
      <polyline points="125.9 0 125.9 6.7 132.6 11.6 141.3 8.8 145.3 0"/>
      <polyline points="177.4 368.4 179.6 374 185.2 377.3 197.2 382.8 202.4 385.6 211.5 390.3 222.2 384.1 225.8 382.7 228.4 377.8 235.1 368.4 234.1 364.7 228.2 351.8 226.7 342.1 226.4 330.6 225.9 327.7 225.7 315.8 227.1 305.1 229.5 297.8 231.1 289.5 231.5 283.1 234 267 234.3 263.2 234.9 260.2 237.8 256.2 246.7 245.7 247.4 236.8 245.1 229.6 237.8 227.2 227.2 221.2 214.7 210.5 215.4 206.7 211.5 196.8 204.5 203.5 202.2 210.5 193.6 218.9 195.6 226.5 193.2 236.8 193.8 245.5 195.2 253.2 195.7 263.2 193.6 271.6 185.2 284 180.7 284.9 179.8 289.5 180.5 294.2 185.2 310.6 186.2 314.8 186.3 315.8 186.6 317.2 191.6 335.7 192.8 342.1 191.3 348.2 185.2 355.2 178.3 361.5 177.4 368.4"/>
      <polyline points="249.9 0 247.3 9.5 237.8 20.5 234 22.5 231.8 26.3 230.7 33.5 227.7 42.4 226.6 52.6 226.1 64.4 225.8 66.9 225.4 78.9 223.1 90.5 221 95.8 218.3 105.3 222.8 116.5 224 119.1 227.7 131.6 226.8 142.7 226.5 146.5 225.5 157.9 223.8 170.1 211.5 181.6 205.3 178 193.5 175.9 193.5 166.2 189.7 157.9 188.6 154.5 185.2 148.6 175.6 141.2 174.2 131.6 177.5 123.9 185.2 117.7 191.2 111.3 197.6 105.3 195.3 95.1 196.8 90.5 195.8 78.9 194.8 69.4 191.7 59.1 190.7 52.6 191.7 46.1 193.9 35 195.1 26.3 193.5 18 189.7 4.5 188.7 0"/>
      <polyline points="249.4 500 250.8 487.1 250.8 486.6 252.3 473.7 252.8 462.3 252.8 458.8 253.2 447.4 252.5 435.7 252.4 432.8 251.7 421.1 247.6 411.3 237.8 402.7 225.4 407.1 223 406.2 223.6 409 217.3 421.1 217.1 426.7 218.1 440.8 218 447.4 218.9 454.8 220.5 464.7 221.6 473.7 218.6 480.7 211.5 484.4 202.3 490.8 198.3 500"/>
      <polyline points="281.2 184.2 284.5 190.1 290.5 193.1 293.4 187.1 293.9 184.2 294.3 180.4 293.1 160.5 293.4 157.9 292.4 156 290.5 155.1 288.2 155.7 286.9 157.9 285.6 162.8 284 177.8 281.2 184.2"/>
      <polyline points="1 230.4 13.5 223.1 14 210.5 13.1 198.5 1 185.4"/>
      <polyline points="29.5 500 31.4 495.9 38.2 484.6 41.4 473.7 36.6 464.4 27.3 463.8 15.9 462.3 3.8 470.9 1 453.1"/>
      <polyline points="142 500 147.6 488.7 148.9 483.7 152.5 473.7 150.3 465.1 148.5 457.8 145.9 447.4 148.6 437.1 158.9 432.2 166.6 428.7 173 421.1 168 411.9 158.9 408.1 146.1 407.6 144.8 407 132.6 405.7 127.6 416.1 124.6 421.1 117.5 432.3 106.3 446.4 105.7 446.8 105.5 447.4 92.3 459.7 79.9 465 67.6 459.8 56.1 447.4 55.6 445.4 53.6 442.8 42.6 432 38.2 432 27.3 428.3 15.3 435.4 1.9 446.5 1 447.2"/>
      <polyline points="41.4 394.7 43.6 404.7 53.6 411.5 62.8 403.9 66.1 394.7 61.7 386.7 53.6 379.6 44.8 385.9 41.4 394.7"/>
      <polyline points="1 183.9 1.7 183.5 24 180.9 24.5 160.8 25.8 157.9 25.3 155.9 27.3 154.2 39.5 143.8 42.3 131.6 42 120 42 116.9 41.7 105.3 40.3 92.3 40.1 91.7 38.1 78.9 44.2 69.5 53.6 57.2 66.1 66.5 71.3 78.9 72.6 86.2 79.5 104.8 79.6 105.3 79.7 105.5 79.9 105.8 88.9 114.3 93.4 118.1 93.3 118.6 96.9 131.6 97 140.9 99.2 150.8 99.3 157.9 98.6 165.5 101.5 179.4 100.7 184.2 92.1 196.4 79.9 194.5 71.2 201.8 63.6 210.5 62.2 219.1 53.6 230.2 50.2 233.5 32.2 231.9 27.3 233.4 17.3 226.8 18.7 236.8 20.3 243.9 17.7 253.5 18.6 263.2 13.6 275.7 1 287.8"/>
      <polyline points="124.3 236.8 122.4 247 132.6 256.9 144.2 248.4 147.5 248.3 158.9 244.6 169 247 173.6 236.8 166.5 229.2 158.9 223 149.4 220.1 136.3 210.5 134.4 208.7 132.6 206 128.1 206.1 129.8 210.5 130 213.1 124 228.3 124.3 236.8"/>
      <polyline points="190 500 193.8 491.5 194.2 482.7 208.5 476.7 211.5 474.6 212.1 474.3 212.4 473.7 212.3 472.9 211.5 468.2 203.9 455 202 447.4 199 434.9 198.8 433.7 195.3 421.1 194.4 411.9 194.4 404 193.7 394.7 188.2 391.8 185.2 390.4 174.8 384.3 169.7 383.9 170.4 380 165.9 368.4 167 360.3 158.9 346.5 155 346 154.5 342.1 154.1 337.4 158.9 335.2 166.4 323.3 166.1 315.8 164.9 309.7 164.4 295 163.6 289.5 164.8 283.6 158.9 281.5 152.1 282.6 150.2 289.5 145.4 302.3 132.6 314.8 130 313.2 125.5 315.8 108.3 317.8 106.3 317.6 105.5 316.6 105.7 315.8 105.6 315.2 106.3 310.4 115.8 299 114 289.5 116 279.7 113.1 270 119.2 263.2 112.9 256.5 106.3 260 97.6 245.5 93.6 236.8 96 226.5 97.8 219 99.7 210.5 94.9 199.1 106.3 193.2 115.3 193.3 118.7 184.2 125.9 177.6 132.6 175.1 140.2 165.5 142.1 157.9 140.4 150.1 132.6 148.1 123.3 140.8 121.7 131.6 121.8 120.8 123.3 114.6 123.4 105.3 120.9 93.6 132.6 89.1 144.4 90.8 149.4 88.5 158.9 97.2 167 87 173.9 90.3 185.2 88.4 187.5 81.2 187.3 78.9 187.1 77.1 185.2 70.8 176.5 70.3 163.2 74.6 158.9 74 151 60.5 151.7 52.6 143.8 41.4 132.6 34.2 123.8 43.9 122.8 52.6 121.8 63.5 124.9 71.3 122.4 78.9 117.9 90.6 106.3 88.1 100.1 85.1 100.5 78.9 98.6 71.2 95.3 63.6 93.5 52.6 94.1 40.5 94.8 37.7 95.7 26.3 99.2 19.3 106.3 12.8 113.7 7.4 113.7 0"/>
      <polyline points="177.6 263.2 179.5 268.9 185.2 267.7 187 265 187.5 263.2 187.4 261 185.2 248.7 175.2 253.1 177.6 263.2"/>
      <polyline points="235.8 342.1 236.1 343.8 237.8 347.6 246.8 351.1 246.3 342.1 249.2 330.7 250.4 328.3 252.1 315.8 252 303.7 264.2 300.6 274.4 299.7 274.7 289.5 272.9 280.8 264.2 274.2 255.6 280.9 249.3 289.5 249.3 300.9 237.8 298 233.4 311.4 232.9 315.8 233 320.7 235.8 340.1 235.8 342.1"/>
      <polyline points="230.8 210.5 234.6 213.8 237.8 215.6 245.4 218 252 210.5 246.6 201.7 237.8 198 231.8 204.5 230.8 210.5"/>
      <polyline points="257.4 0 254.9 9.3 255.4 17.6 249 26.3 245.7 34.2 237.8 43.5 235.6 50.3 235.3 52.6 235.2 55.3 233 74.1 232.9 78.9 231.7 85.1 230.9 98.3 229 105.3 231.5 111.6 235 128.7 235.8 131.6 235.6 133.8 234.1 154.1 233.7 157.9 233.1 162.7 237.8 171.2 249.4 169.5 254.7 167.3 264.2 165.2 266.8 160.5 267.5 157.9 272.1 150 267.2 134.7 279.6 142.4 290.5 139.7 303 145.4 309.6 157.9 308.5 166.2 306.3 173.8 305.3 184.2 303.2 196.9 302.4 198.6 298.8 210.5 303.7 223.6 305.3 225.4 314.5 236.8 313.9 239.8 311.7 258.1 310.2 263.2 312.2 267.8 316.3 289 316.5 289.5 301.6 300.6 290.5 307.4 281.2 306.5 281.6 315.8 283.8 322.4 290.5 326.7 297.4 335.2 299.4 342.1 297.7 349.3 290.5 357 278.1 354.5 276.6 354.6 264.2 352.9 252.8 357 252.5 368.4 249.6 380.2 247.5 385.1 244.3 394.7 255.3 403.6 256.7 413.6 259.8 421.1 260.1 425.1 260.7 443.9 260.9 447.4 260.8 450.7 260.7 470.2 260.6 473.7 260.1 477.8 257.5 493.4 256.8 500"/>
      <polyline points="259 236.8 258.5 242.5 264.2 252.4 273.3 246 275.9 236.8 272.9 228.1 264.2 222.6 256.6 229.2 259 236.8"/>
      <polyline points="301.5 500 300.2 490.3 300.2 483.4 299.2 473.7 299.3 464.8 299.6 456.4 299.7 447.4 300.6 437.3 300.7 431.3 301.7 421.1 302 409.5 302 406.3 302.3 394.7 299.3 385.9 290.5 377.9 281.9 386.2 279.7 394.7 278.4 406.8 278.4 409 276.9 421.1 276.4 433.3 276.2 435.3 275.8 447.4 276.1 459.3 276.1 461.7 276.5 473.7 279.7 484.5 279.7 489.2 281.7 500"/>
      <polyline points="272.3 78.9 283 86.5 290.5 92.4 298 86.5 302.2 78.9 295.8 73.6 290.5 71.5 285 73.4 272.3 78.9"/>
      <polyline points="367.2 315.8 367.4 317.8 369.4 320 370.9 317.2 374 315.8 372.9 312.3 369.4 309.6 366.9 313.3 367.2 315.8"/>
      <polyline points="321.5 263.2 333.8 272.5 343.1 270.9 349.1 269.2 354.1 263.2 354.7 251.6 354.4 248.2 355.1 236.8 358.6 226 369.4 218.3 376.3 217.4 376.8 210.5 375.9 204 369.4 205.7 356.3 197.3 351.4 184.2 348.9 178.4 343.1 171.3 335.7 176.8 334.6 184.2 334.7 192.6 335.8 203.2 335.9 210.5 331.2 222.4 330.9 224.6 319.5 236.8 319.5 239.5 321.5 258.4 321.5 263.2"/>
      <polyline points="388.6 0 383.1 12.7 383.1 13.6 381.7 14.1 369.4 22 365.6 22.5 364.2 26.3 366 29.7 369.4 31.2 378.3 35.2 385.2 36.8 395.7 47.2 399.2 29.7 400.1 26.3 404.3 17.8 404.2 8.5 413.7 8.4 422.1 4.1 428.3 6.2 442.9 5.5 448.4 12.2 453.6 5.2 472.7 1.9 474.7 1.1 475.2 0.5 490.3 0"/>
      <polyline points="393.1 236.8 394.3 238.3 395.7 239 400.6 241.7 403.6 236.8 400.9 231.7 395.7 234.4 392.8 233.9 393.1 236.8"/>
      <polyline points="387.7 184.2 387.1 192.8 395.7 195.4 406.3 200 413.2 210.5 412 220.5 422.1 228.4 425.9 214.4 427.9 210.5 426.7 205.8 427.9 190.1 427.1 184.2 427.3 178.9 422.1 170.4 413.8 166.2 409.8 157.9 404.1 149.5 395.7 141 389.5 151.6 389.1 157.9 388.4 165.2 388.5 177 387.7 184.2"/>
      <polyline points="387.7 78.9 389.2 85.4 395.7 94.1 402.1 85.3 401.1 78.9 399.9 74.7 395.7 57.1 388.4 71.6 387.7 78.9"/>
      <polyline points="419.3 289.5 420.6 291 422.1 291.2 423.8 291.2 425 289.5 424.1 287.4 425.8 266.9 425.1 263.2 425.2 260 422.1 244.4 411.9 253 413.1 263.2 415.8 269.4 418.2 285.6 419.3 289.5"/>
      <polyline points="1 368.8 1.3 368.7 1.6 368.4 1.4 368 1 368"/>
      <polyline points="1 222.1 8.3 217.8 8.5 210.5 8 203.5 1 196"/>
      <polyline points="1 134 4.8 135.4 7.9 131.6 4.4 128.2 1 128.3"/>
      <polyline points="19.7 315.8 21.8 321.4 27.3 330.3 36.4 333 46.5 342.1 51.4 344.4 53.6 344.4 55.9 344.4 56.6 342.1 72.8 334.9 79.9 336.6 92.3 329.8 95.7 331.5 93.5 328.6 96.5 315.8 96.1 305.6 97 298.7 96.5 289.5 92.8 276.6 91.9 275.2 86.1 263.2 83.9 259.2 79.9 249.4 71.5 254.7 60 256.8 53.6 259 49.7 259.2 38.6 263.2 33.1 269 27.3 275.2 25.7 287.8 23.9 289.5 22.9 293.9 21.6 310.1 19.7 315.8"/>
      <polyline points="43.7 0 47.4 6.2 53.4 26.1 53.5 26.3 36.6 35.6 27.3 32.7 24.5 29.1 23.7 26.3 24.9 23.9 26.2 1.1 26.5 0"/>
      <polyline points="79.1 210.5 78.9 211.6 79.9 215.3 80.8 211.4 81 210.5 80.7 209.8 79.9 209.7 79.5 210.1 79.1 210.5"/>
      <polyline points="78.4 78.9 78.6 80.3 79.9 83.9 83.5 82.5 83.7 78.9 82.9 76 83.4 56.1 82.8 52.6 83 49.6 79.9 30.2 69.2 41.9 70.4 52.6 76.8 55.8 77.3 76.3 78.4 78.9"/>
      <polyline points="91.4 0 85.3 5.3 79.9 22.8 76.5 22.8 56 26.3 54.6 27.2 53.6 26.6 46.6 45.6 50.1 52.6 40.3 65.6 39.9 66.4 31.9 78.9 32.7 84.3 36.3 96.3 37.3 105.3 37.5 115.5 37.7 121.2 37.9 131.6 35.9 140.2 27.3 147.6 21.7 152.3 23.2 157.9 19.4 165.8 19.2 176.1 7.8 177.4 1 181.2"/>
      <polyline points="350.4 500 355.8 487.3 355.8 486.4 357 486.1 369.4 478.6 371.2 475.4 374.4 473.7 374.8 468.3 379.8 457.8 380.2 447.4 379.3 437.5 369.4 430.5 356.7 434.7 350 447.4 350.5 454.8 343.1 462.4 330.8 461.3 317.6 473.7 317.2 474.1 316.8 474.1 316.7 473.8 316.7 473.7 316.7 473.6 316.8 467.2 324.8 455.4 318.7 447.4 322.7 441.4 329 433.3 333.7 421.1 333.5 411.4 332.4 405.4 332.2 394.7 333.2 384.8 334.1 377.4 335.1 368.4 324.2 361 322.1 347.4 319.7 342.1 319 339.9 319.1 318.1 318.6 315.8 320.9 311.7 326.1 298.7 336.8 289.5 339.3 285.7 343.1 285 349.3 283.3 367.4 287.4 369.4 283.9 379.4 279.5 383.2 277 395.7 274.6 401 284.2 402.6 289.5 411.3 300.2 422.1 302.2 434.7 302.1 443.3 289.5 439.2 280.3 436 275.5 433.5 263.2 434 251.2 433.3 248.1 434.1 236.8 438 226.4 445.8 213.1 447.1 210.5 446.7 208.9 439.6 192.9 438.4 184.2 438.8 174.7 448.4 162.6 449.8 159.3 449.9 157.9 449.9 156.4 448.4 153.7 436.6 146.1 434.7 145.2 433.3 142.8 425.1 131.6 424.7 129 429.3 112.6 428.8 105.3 427.6 99.7 422.1 95.6 412.4 88.6 410.8 78.9 407.6 67.1 406.8 63.7 403.9 52.6 406.5 41.9 407.3 37.8 410.3 26.3 414.2 18.5 422.1 14.5 430.9 17.4 439.1 26.3 443 31.7 448.4 35.6 451.1 29.1 458.5 26.3 466 17.6 474.7 13.7 481.4 6.7 494.8 6.2 501 4"/>
      <polyline points="348 368.4 356.6 381.2 369.4 385.3 372.4 371.4 372.1 368.4 371.7 366.2 369.4 356.3 361.5 360.5 348 368.4"/>
      <polyline points="360.4 315.8 361.4 323.8 369.4 332.6 375.2 321.6 387.9 315.8 384.1 304.2 384.6 300.6 375.6 295.7 369.4 290.7 359.3 305.7 360.4 315.8"/>
      <polyline points="368.9 184.2 369 184.6 369.4 184.8 369.9 184.7 370 184.2 370 183.6 374.4 162.8 374.8 157.9 375.2 152.1 369.4 137.7 360.3 148.8 358.2 157.9 363 164.3 368.5 183.3 368.9 184.2"/>
      <polyline points="363.2 105.3 364 110.7 369.4 120.6 373.8 109.6 375 105.3 372.9 101.7 374.1 83.6 372.9 78.9 373.4 75 369.4 56.6 359.2 68.7 359.2 78.9 360.8 87.6 362 97.9 363.2 105.3"/>
      <polyline points="365.4 0 366.7 2.7 369.4 2.4 370.9 1.4 371.5 0"/>
      <polyline points="445.4 315.8 446.5 317.7 448.4 318.3 450.8 318.3 450.8 315.8 450.5 313.7 448.4 306.2 438.4 305.9 445.4 315.8"/>
      <polyline points="474.5 368.4 474.6 368.5 474.7 368.9 475.1 368.9 475.4 368.4 474.8 368.3 475.4 342.8 475.1 342.1 475.1 341.6 474.7 339.4 472 339.5 472 342.1 473.5 343.2 474.4 368.2 474.5 368.4"/>
      <polyline points="1 213.7 3 212.5 3.1 210.5 2.9 208.6 1 206.5"/>
      <polyline points="1 136.8 9.2 139.8 15.9 131.6 8.4 124.2 1 124.5"/>
      <polyline points="24.5 0 23.5 3.9 22.5 21.5 20 26.3 21.6 32 27.3 39.1 37.6 42.4 42.8 52.6 36.1 61.5 27.3 75.9 26.3 78 26.2 78.9 26.3 80 27.3 83.6 32.3 100.3 32.9 105.3 33 110.9 33.4 125.5 33.5 131.6 32.4 136.6 27.3 141 18.2 148.7 20.6 157.9 14.3 170.9 14.3 171.2 13.9 171.3 1 178.4"/>
      <polyline points="66.8 315.8 72.4 323.3 79.9 325.1 85.9 321.8 87.3 315.8 87.1 308.7 83.7 293.2 83.5 289.5 82.7 286.7 79.9 282.3 75.2 284.7 71.9 289.5 70 299.4 68.1 303.9 66.8 315.8"/>
      <polyline points="336.2 342.1 338.4 346.9 343.1 350.7 348.6 347.6 359.5 342.1 352.7 332.5 355 327.7 353.6 315.8 352.6 306.3 343.1 297.6 333.6 306.3 328.3 315.8 330.8 328.1 332.6 331.6 336.2 342.1"/>
      <polyline points="501 8.3 488.2 12.8 487.5 12.8 474.7 26.3 474.7 26.3 474.7 26.3 455.5 33.4 448.4 50.4 440.1 44.4 434.1 40.6 430.3 34.5 424.2 26.3 423.2 25.2 422.1 24.8 421 25.3 420.5 26.3 420 28.4 414.8 45.4 413.1 52.6 414.9 59.7 420 76.9 420.6 78.9 420.8 80.2 422.1 81.2 430.7 87.6 438.5 88.8 436.2 93.1 438.8 105.3 439.5 114.1 448 131.2 448 131.6 448.2 131.8 448.4 131.9 457.7 148.5 457.7 157.9 457.1 166.6 450.5 182.1 450.2 184.2 453.1 188.9 459.2 199.7 468.2 210.5 461.9 223.3 461.7 223.9 457 228.2 448.4 236.4 448.2 236.7 448.1 236.8 448.1 237.1 442.2 257 441.9 263.2 443 268.5 448.4 276.7 457 280.8 461.8 289.5 464 300.2 464.5 305.6 466.2 315.8 466.3 324.2 474.7 324.2 477.8 339 477.3 342.1 479.3 346.7 478.9 364.2 495.6 368.4 487.6 381.4 474.7 383.3 470.9 372.2 470.2 368.4 467.4 361.2 467 349.8 456.7 342.1 456.7 333.7 448.4 333.7 436.1 329.8 433.1 331 433.4 327.1 426.7 315.8 424.8 313.1 422.1 313.1 418.7 312.5 412.5 315.8 398.8 318.9 395.7 317.6 390.6 320.9 379.6 326 373 338.6 370.5 342.1 370.8 343.5 375.2 362.7 376.3 368.4 377 376 374 390.1 374.9 394.7 381.3 406.6 381.4 409.1 383.6 408.9 395.7 414.4 399 417.8 400.8 421.1 403.2 428.5 398.9 444.2 414 447.4 417 452.5 416 467.6 417.4 473.7 402 479.9 395.7 484.4 386.5 490.8 380.1 500"/>
      <polyline points="1 139.6 13.6 144.2 23.9 131.6 12.3 120.3 1 120.7"/>
      <polyline points="22.6 0 20.7 6.6 20.1 19.1 16.3 26.3 18.7 34.9 27.3 45.5 32.7 47.2 35.4 52.6 31.9 57.3 27.3 64.8 22.7 74.3 22.2 78.9 22.3 83.9 27.3 100.8 28.3 104.2 28.5 105.3 28.5 106.4 29.1 129.8 29.2 131.6 28.8 133.1 27.3 134.4 14.6 145.2 18 157.9 12.5 169.4 1 175.7"/>
      <polyline points="337.9 315.8 338.8 320.1 343.1 328.4 347.3 320 346.8 315.8 346.4 312.5 343.1 309.4 339.8 312.5 337.9 315.8"/>
      <polyline points="501 397.3 496.5 399.3 476 396 476.6 419.1 475.6 421.1 475.7 422.1 474.7 422.6 472.6 423.1 471.7 421.1 472.5 418.8 473.2 396.2 473.5 394.7 473.2 393.2 467.2 375.9 465.9 368.4 461 355.8 448.4 344.8 443.6 346.9 428.6 348.7 422.1 359.4 418.3 345.8 418.3 342.1 413.6 333.7 413.8 324.1 405.8 325.9 395.7 321.9 383.4 329.8 374.9 342.1 376.4 349.1 378.7 359.2 380.5 368.4 381.7 380.7 381.2 382.9 383.5 394.7 387.8 402.7 395.7 406.3 403 413.8 406.9 421.1 410.6 432.5 422.1 440.3 428.6 440.8 444 443 448.4 443.4 451.1 444.6 450.5 447.4 450.1 449.1 448.4 464.1 443.8 469.1 442.3 473.7 429.7 481.3 422.1 485.1 412.1 490 399.2 500"/>
      <polyline points="501 366.6 495.9 363.3 483.1 360 483.3 350.7 479.5 342.1 480.4 336.4 476.5 317.6 477.2 315.8 478.2 312.3 477.3 292.1 479.2 289.5 478.4 285.8 477.8 266.3 477.3 263.2 477.9 260 479.5 241.6 480.7 236.8 482.7 228.8 484.1 220 487.3 210.5 478.9 206.3 474.7 196 469.2 189.7 465.9 184.2 466.9 176.5 464.8 167.8 465.5 157.9 465.5 148.7 474.7 133 475.2 132.1 475.1 131.6 475 131.2 474.7 131.3 473.9 130.8 454.4 125.5 448.9 105.8 448.6 105.3 448.7 105 451.7 82.3 452.6 78.9 451.9 75.5 452.2 56.4 451.6 52.6 457.5 43.5 459.9 37.8 465.1 35.9 474.7 30.1 477.1 28.8 480.9 26.3 490.8 16.1 501 12.5"/>
      <polyline points="1 173 10.7 167.6 15.4 157.9 12.4 146.5 1 142.4"/>
      <polyline points="20.6 0 18 9.3 17.6 16.6 12.6 26.3 15.9 37.8 27.3 52 27.8 52.1 28.1 52.6 27.7 53.1 27.3 53.8 19 70.6 18.3 78.9 18.4 87.8 22 99.9 22.2 105.3 12.2 116.5 1 116.9"/>
      <polyline points="501 400 491.7 404 482.5 402.5 482.8 413 478.5 421.1 478.9 425.2 474.7 427.4 466.2 429.5 462.5 421.1 465.6 411.9 465.8 403.6 467.7 394.7 465.5 385.6 463.5 379.6 461.5 368.4 457.9 358.9 448.4 350.7 436 356.1 426.3 368.4 424.9 371.2 422.1 372.9 418 372.4 417.2 368.4 417.2 363.6 413.6 350.6 413.5 342.1 407.2 330.7 395.7 326.2 386 332.4 379.3 342.1 381.9 354.6 382.2 355.7 384.7 368.4 385.7 378.5 391.2 390.2 392.1 394.7 393.4 397.1 395.7 398.2 406.9 409.8 413.1 421.1 415.3 427.9 422.1 432.5 434.4 433.4 435.9 433.5 448.4 434.6 457.1 438.6 455.2 447.4 454.1 453.1 452 470 451.4 473.7 451.5 476.8 448.4 484.8 438.7 490.4 425.9 496.1 422.1 498 420.7 498.7 419 500"/>
      <polyline points="501 219.8 496 231.8 494.7 236.8 492.6 245.2 490.2 252.3 488.1 263.2 489.9 274.2 492.2 280.6 494.2 289.5 485.8 300.6 486 304.5 482.8 315.8 480.6 321.7 483.1 333.7 481.8 342.1 487.2 354.6 487.2 355.9 489 356.4 501 364"/>
      <polyline points="501 209.1 496.3 205.9 485.1 200.1 481.2 190.7 477.2 184.2 478.7 180.2 474.7 165.5 473.2 159.4 473.3 157.9 473.3 156.5 474.7 154.1 483 139.9 481.2 131.6 479.8 126.4 474.7 126.7 463.2 120.1 460.6 119.4 459.8 116.7 453.2 105.3 454.4 99.2 456.1 86.7 458.1 78.9 456.5 70.8 456.6 60.9 455.5 52.6 463 40.9 474.7 33.9 479.6 31.2 487.1 26.3 494 19.3 501 16.8"/>
      <polyline points="501 103.8 499.9 104.2 499.6 105.3 499.1 107.1 501 107.3"/>
      <polyline points="1 170.2 8.9 165.8 12.8 157.9 10.3 148.6 1 145.2"/>
      <polyline points="18.6 0 15.3 12 15.2 14.2 8.9 26.3 12 37.4 12 41.6 19.5 52.6 17.6 62.3 15.3 67 14.3 78.9 14.5 91.7 14.8 92.8 15.2 105.3 8.5 112.8 1 113.1"/>
      <polyline points="388.9 368.4 389.5 374.6 395.7 387.8 404 386.4 401.9 394.7 411.7 405.1 415.8 414.8 419.2 421.1 419.9 423.2 422.1 424.7 426 425 444 425.4 448.4 425.8 457.2 429.9 453.3 421.1 455.8 413.6 459.5 405.9 461.9 394.7 459.3 383.8 459 379.1 457.2 368.4 454.7 362 448.4 356.5 440.1 360.2 433.6 368.4 429.6 376 422.1 380.4 411.2 379.3 409 368.4 408.9 355.3 408.9 355.2 408.8 342.1 404.1 333.7 395.7 330.4 388.6 335 383.7 342.1 385.8 352.1 387.2 359.9 388.9 368.4"/>
      <polyline points="501 446.3 499.2 445.6 498.8 447.4 499.4 448.9 501 454.4"/>
      <polyline points="501 402.7 488.2 408.2 481.4 421.1 482 428.4 474.7 432.2 462.5 435.2 459.8 447.4 458 457 457 465.1 455.5 473.7 455.7 481 448.4 500 448.4 500 448.3 500"/>
      <polyline points="501 294.6 491.2 306 488.5 315.8 484.6 325.7 485.7 331.1 484 342.1 489.1 354 501 361.5"/>
      <polyline points="501 256.4 499.3 261.4 499 263.2 499.2 264.9 501 270"/>
      <polyline points="501 163.6 488 170.9 487.7 170.9 487.8 171.1 482.9 184.2 489.8 195.4 501 203.1"/>
      <polyline points="501 98.4 495.9 100.2 494.3 105.3 492.3 113.9 501 114.7"/>
      <polyline points="501 21.1 497.1 22.4 493.4 26.3 482.1 33.7 474.7 37.6 465.3 43.3 459.3 52.6 461.1 65.4 461.1 66.2 463.6 78.9 460.5 91.1 460.2 93.4 457.7 105.3 464 116 474.7 122.2 484.7 121.6 487.2 131.6 489.7 142.9 501 150.6"/>
      <polyline points="1 167.5 7.2 164.1 10.2 157.9 8.2 150.7 1 148.1"/>
      <polyline points="16.7 0 13.3 12.3 9.8 17.5 5.2 26.3 6.9 32.2 6.8 46.8 10.7 52.6 9.2 60.8 11.2 68.8 10.3 78.9 10.5 88.4 8.1 98.2 8.3 105.3 4.9 109.1 1 109.3"/>
      <polyline points="393.1 368.4 393.4 370.8 395.7 375.9 402.1 374.8 400.8 368.4 400.8 363.4 404.1 350.5 404 342.1 401.1 336.8 395.7 334.7 391.2 337.6 388.1 342.1 389.4 348.4 392.5 365.2 393.1 368.4"/>
      <polyline points="412.6 394.7 417.2 399.6 422.1 411.1 430.5 412.6 440.4 413.1 448.4 414.2 454.7 401.1 456 394.7 454.6 388.5 453.8 373.8 452.8 368.4 451.6 365.2 448.4 362.4 444.2 364.2 440.9 368.4 434.4 380.8 422.1 388 414.5 387.2 412.6 394.7"/>
      <polyline points="501 442.6 493 439.4 491.2 447.4 493.9 454.5 498.8 471.5 499.5 473.7 499.6 475.1 501 476"/>
      <polyline points="501 405.4 490.1 410.1 484.3 421.1 485.2 431.6 474.7 437 466.4 439.1 464.5 447.4 462 460 461.8 460.8 459.6 473.7 459.9 485.2 457.8 490.6 458.3 500"/>
      <polyline points="501 304.1 495.6 310.4 494.1 315.8 489.7 327.1 488.2 329.3 486.3 342.1 490.7 352.4 501 358.9"/>
      <polyline points="501 170.1 492 175.2 488.6 184.2 493.3 191.9 501 197.1"/>
      <polyline points="501 122.2 490.6 121.2 493.3 131.6 494.7 137.9 501 142.2"/>
      <polyline points="501 93.1 491.9 96.2 489 105.3 486.4 117 474.7 117.6 466.8 113.1 462.3 105.3 464.4 95 467.3 86.4 469.2 78.9 467.8 72.1 464.6 62.7 463.2 52.6 467.7 45.6 474.7 41.4 484.5 36.2 499.6 26.3 500.3 25.6 501 25.3"/>
      <polyline points="1 164.7 5.4 162.3 7.5 157.9 6.2 152.7 1 150.9"/>
      <polyline points="14.7 0 11.7 10.7 2 25.3 1.5 26.3 1.7 27 1.6 52 2 52.6 1.9 53.5 6.8 73.1 6.3 78.9 6.4 84.4 1.3 104.9 1.4 105.3 1.2 105.5 1 105.5"/>
      <polyline points="392.5 342.1 393 344.8 395.7 359.5 399.3 345.7 399.3 342.1 398 339.8 395.7 338.9 393.8 340.2 392.5 342.1"/>
      <polyline points="429.1 394.7 444.3 398.8 448.4 399.4 449.9 396.2 450.2 394.7 449.8 393.3 448.5 368.6 448.5 368.4 448.5 368.3 448.4 368.3 448.3 368.3 448.2 368.4 447.9 368.8 444.8 391.2 429.1 394.7"/>
      <polyline points="501 486.7 493.2 481.5 492.7 473.7 488.7 461.4 488.3 460.1 483.6 447.4 486.2 435.8 474.7 441.8 470.2 442.9 469.2 447.4 467.9 454.2 465.3 464.3 463.7 473.7 464 484.4 467.9 493.2 468.3 500"/>
      <polyline points="501 408.1 492 412 487.2 421.1 488.3 433.8 501 438.9"/>
      <polyline points="501 313.6 500 314.8 499.7 315.8 498.9 317.9 490.2 331.3 488.5 342.1 492.3 350.8 501 356.4"/>
      <polyline points="501 176.6 496.1 179.4 494.3 184.2 496.9 188.3 501 191.2"/>
      <polyline points="501 129.6 498.8 129.4 499.4 131.6 499.7 132.9 501 133.8"/>
      <polyline points="501 87.7 487.9 92.2 483.7 105.3 482.1 112.7 474.7 113.1 469.7 110.2 466.8 105.3 468.2 98.8 474.7 79 476.4 80.7 474.7 78.9 474.7 78.9 474.7 78.9 468 59.3 467.1 52.6 470 48 474.7 45.2 487 38.6 491.9 35.4 501 29.7"/>
      <polyline points="1 162 3.6 160.5 4.9 157.9 4.1 154.8 1 153.7"/>
      <polyline points="1 85.8 2.3 80.3 2.3 78.9 2.5 77.5 1 71.7"/>
      <polyline points="1 23 10.2 9.2 12.8 0"/>
      <polyline points="501 497.3 493 492 490.2 500"/>
      <polyline points="467.8 473.7 468 480.4 474.7 495.3 486.7 485.7 486 473.7 483.2 465.2 476.7 449.4 476 447.4 476.4 445.7 474.7 446.6 474 446.7 473.9 447.4 473.7 448.4 468.8 467.8 467.8 473.7"/>
      <polyline points="501 410.8 493.8 413.9 490.1 421.1 490.9 431.1 501 435.1"/>
      <polyline points="501 319.6 492.1 333.2 490.7 342.1 493.8 349.3 501 353.8"/>
      <polyline points="501 183.1 500.3 183.5 500.1 184.2 500.4 184.8 501 185.2"/>
      <polyline points="471.4 105.3 472.6 107.3 474.7 108.5 477.8 108.4 478.5 105.3 480.3 99.7 474.7 94.3 472 102.6 471.4 105.3"/>
      <polyline points="501 34.1 489.6 41.2 482.6 44.7 474.7 48.9 472.4 50.3 470.9 52.6 471.4 56 474.7 65.6 480.7 73 490.7 78.9 495.8 84.2 501 82.4"/>
      <polyline points="1 159.3 1.9 158.8 2.3 157.9 2 156.9 1 156.5"/>
      <polyline points="1 19.2 8.7 7.7 10.8 0"/>
      <polyline points="471.9 473.7 472 476.4 474.7 482.4 479.5 478.5 479.2 473.7 478.1 470.3 474.7 461.9 472.3 471.3 471.9 473.7"/>
      <polyline points="501 413.5 495.7 415.8 493 421.1 493.6 428.5 501 431.4"/>
      <polyline points="501 324.5 494 335.1 493 342.1 495.4 347.7 501 351.3"/>
      <polyline points="501 38.6 492.3 44 474.8 52.6 475.8 53.7 486.6 67 492.6 70.5 501 76.3"/>
      <polyline points="1 15.3 7.1 6.1 8.8 0"/>
      <polyline points="501 416.2 497.6 417.7 495.8 421.1 496.3 425.8 501 427.7"/>
      <polyline points="501 329.4 496 337.1 495.2 342.1 497 346.2 501 348.7"/>
      <polyline points="501 43 495.1 46.7 483 52.6 491.4 62.3 501 68.9"/>
      <polyline points="1 11.5 5.6 4.6 6.9 0"/>
      <polyline points="501 418.9 499.5 419.6 498.7 421.1 498.9 423.1 501 424"/>
      <polyline points="501 334.3 497.9 339 497.4 342.1 498.5 344.6 501 346.2"/>
      <polyline points="501 47.4 497.8 49.4 491.3 52.6 495.8 57.9 501 61.4"/>
      <polyline points="1 7.7 4.1 3.1 4.9 0"/>
      <polyline points="501 339.2 499.8 341 499.7 342.1 500.1 343 501 343.6"/>
      <polyline points="501 51.8 500.5 52.1 499.5 52.6 500.2 53.5 501 54"/>
      <polyline points="1 3.8 2.5 1.5 3 0"/>
    </g>
  </g>
</svg>