<svg width="200" height="200" viewBox="0 0 200 200" xmlns="http://www.w3.org/2000/svg" xmlns:xlink="http://www.w3.org/1999/xlink"><defs><path id="a" d="M.06 0H200v200H.06z"/><path d="M14.413 141.764l.521-60.464S-.532 49.236.444 45.451C1.42 41.668 29.207.658 29.207.658l53.677 7.715s25.956 53.186 20.164 80.241c-5.793 27.055-53.144 13.652-53.144 13.652l17.674 37.153-53.165 2.345" id="c"/><path id="e" d="M.178.524h184.035V135H.178z"/><path d="M116.698 65.417S95.54 77.193 78.774 80.619c-15.257 3.119-23.789-7.577-23.789-7.577S41.184 57.168 42.869 28.175C43.704 13.79 70.154 13.82 86.135 13.85c10.118.019 16.04.039 8.609-3.601C47.973-12.654-.925 9.407.375 43.815c.688 18.231 10.32 46.414 29.401 59.753l.158-18.268s-15.686-19.381-7.683-23.97c9.698-5.561 17.183 12.234 20.618 17.088 0 0 4.518 10.094 11.527 24.367 4.844 9.866 20.317 23.191 45.689 15.829 23.32-6.766 24.286-34.385 16.613-53.197" id="g"/></defs><g fill="none" fill-rule="evenodd"><mask id="b" fill="#fff"><use xlink:href="#a"/></mask><path fill="#0B8F5F" mask="url(#b)" d="M.06 200H200V0H.06z"/><path d="M60.711 225.553c11.434-3.504 22.016-8.643 27.905-17.618 9.835-14.988 8.986-35.245 7.206-52.315-3.135-30.067-14.311-75.206-50.554-79.595l-1.166-1.824c-7.031 8.33-12.46 19.257-10.625 30.442 2.018 12.304 10.597 16.076 17.82 24.536 12.311 14.419-6.172 29.088-18.739 35.167C14.408 173.125.487 184.619 0 206.265c-.186 8.297 2.203 15.588 6.702 20.564 17.994-.703 36-1.118 54.009-1.276" fill="#136747" mask="url(#b)"/><path d="M69.413 170.764l.521-60.464s-15.466-32.064-14.49-35.849c.976-3.783 28.763-44.793 28.763-44.793l53.677 7.715s25.956 53.186 20.164 80.241c-5.793 27.055-53.144 13.652-53.144 13.652l17.674 37.153-53.165 2.345" fill="#E9846F"/><g transform="translate(55 29)"><mask id="d" fill="#fff"><use xlink:href="#c"/></mask><path d="M34.696 89.08s10.5 40.933 10.887 42.08c8.528 25.283 31.748 8.228 27.627-5.448L49.071 89.08H34.696" fill="#E26363" mask="url(#d)"/></g><path d="M109.299 81.969c.886 3.847-.102 7.364-2.209 7.854-2.105.49-4.53-2.232-5.416-6.08-.885-3.847.104-7.363 2.209-7.853 2.106-.49 4.531 2.231 5.416 6.079m36.089-8.504c.886 3.847-.102 7.363-2.209 7.854-2.105.489-4.53-2.232-5.416-6.079-.885-3.848.104-7.364 2.209-7.854 2.106-.49 4.531 2.231 5.416 6.079" fill="#0F1E18"/><path d="M125.208 97.526l8.822-4.375c.318-.158.552-.441.646-.784a1.239 1.239 0 00-.154-1.004L119.86 68.704l-1.043.675 1.055-.656c-.064-.101-.956-1.51-2.963-2.913-2.002-1.404-5.137-2.778-9.526-2.774-4.833.001-11.138 1.641-19.22 6.511a1.244 1.244 0 001.283 2.129c7.811-4.707 13.678-6.155 17.937-6.155 3.872.004 6.454 1.18 8.103 2.327a10.233 10.233 0 011.779 1.562c.185.208.318.377.4.488l.085.12.015.023.001.001.648-.412-.652.406.004.006.648-.412-.652.406.012.018 13.904 21.489-7.574 3.756a1.243 1.243 0 001.104 2.227m7.555-34.351l-.126-.087.125.088.001-.001-.126-.087.125.088c.032-.048 1.28-1.812 3.45-3.521 2.177-1.716 5.23-3.352 8.936-3.349 2.144.002 4.536.536 7.198 1.98a1.243 1.243 0 001.186-2.184c-2.986-1.624-5.818-2.283-8.384-2.282-4.53.003-8.142 2.017-10.591 3.976-2.455 1.965-3.794 3.903-3.84 3.967a1.243 1.243 0 102.046 1.412" fill="#0F1E18"/><path d="M115.203 70.001l-.331-1.198-24.253 6.688a1.241 1.241 0 00-.908 1.297c.005.059.243 3.049 1.395 6.764 1.159 3.707 3.214 8.186 7.059 11.113.376.28.755.396 1.134.475.38.075.774.102 1.199.102 1.455-.004 3.323-.322 5.401-.805a73.413 73.413 0 009.445-2.95c1.409-.555 2.636-1.102 3.574-1.62.471-.263.869-.513 1.211-.793.171-.142.33-.291.481-.485a1.79 1.79 0 00.368-.826c.138-.919.199-1.837.199-2.744-.004-4.114-1.244-8.003-2.464-10.888-1.224-2.884-2.44-4.763-2.467-4.806a1.249 1.249 0 00-1.374-.522l.331 1.198-1.043.676.008.013c.112.175 1.258 2 2.363 4.666 1.109 2.665 2.164 6.171 2.16 9.663 0 .795-.053 1.59-.171 2.376l.776.116-.68-.402a.79.79 0 00-.096.286l.776.116-.68-.402.337.199-.311-.238-.026.039.337.199-.311-.238-.001.001c-.042.056-.358.305-.819.561-.814.464-2.092 1.04-3.581 1.617a72.153 72.153 0 01-7.503 2.419 46.607 46.607 0 01-3.562.797c-1.074.19-2.013.293-2.678.292-.311 0-.56-.023-.713-.054l-.148-.04-.01-.004-.089.193.127-.168-.038-.025-.089.193.127-.168c-3.191-2.402-5.12-6.416-6.185-9.869a34.22 34.22 0 01-1.05-4.427 28.385 28.385 0 01-.193-1.334c-.019-.156-.031-.275-.039-.354l-.008-.087-.002-.022-1.239.098.331 1.198 24.253-6.688-.33-1.198-1.043.676 1.043-.676m36.135-8.601l-.331-1.198-24.254 6.689a1.24 1.24 0 00-.908 1.296c.006.059.244 3.05 1.396 6.764 1.159 3.707 3.213 8.186 7.058 11.113.377.28.756.396 1.134.475.381.075.775.102 1.2.102 1.455-.004 3.322-.322 5.4-.805a73.271 73.271 0 009.446-2.95c1.409-.555 2.636-1.101 3.574-1.62a8.142 8.142 0 001.211-.793c.171-.142.33-.291.481-.485.146-.195.305-.443.367-.826.138-.919.199-1.836.199-2.743-.004-4.114-1.244-8.003-2.464-10.889-1.223-2.884-2.44-4.763-2.467-4.806a1.247 1.247 0 00-1.373-.522l.331 1.198-1.043.676.008.013c.112.175 1.258 2 2.363 4.667 1.108 2.665 2.164 6.171 2.16 9.663 0 .795-.054 1.589-.172 2.375l.777.116-.68-.402a.798.798 0 00-.097.285l.777.117-.68-.402.336.199-.31-.238-.026.039.336.199-.31-.238-.001.001c-.042.056-.358.305-.819.561-.814.464-2.092 1.04-3.581 1.617a72.095 72.095 0 01-7.504 2.419 46.082 46.082 0 01-3.561.796c-1.074.191-2.013.294-2.678.293-.311 0-.561-.023-.714-.054l-.148-.04-.01-.004-.088.192.127-.167-.039-.025-.088.192.127-.167c-3.192-2.402-5.121-6.415-6.186-9.869a34.172 34.172 0 01-1.05-4.426 28.39 28.39 0 01-.231-1.689l-.009-.087-.002-.022-1.238.099.33 1.198 24.254-6.689-.33-1.198-1.043.676 1.043-.676" fill="#FFFFFE"/><g transform="translate(2 65)"><mask id="f" fill="#fff"><use xlink:href="#e"/></mask><path d="M114.121 5.839l-.06-.055.059.056.001-.001-.06-.055.059.056c.039-.043.741-.782 1.847-1.482 1.109-.705 2.599-1.352 4.228-1.348 1.115.003 2.314.283 3.633 1.102a1.243 1.243 0 001.316-2.109C123.455.946 121.748.521 120.195.524c-2.359.004-4.321.931-5.689 1.818-1.371.894-2.173 1.77-2.221 1.822a1.242 1.242 0 101.836 1.675" fill="#FFFFFE" mask="url(#f)"/><path d="M78.076 160.473c35.4.038 70.78.995 106.137 2.551-20.709-40.054-67.978-68.736-67.978-68.736s-29.884 8.581-49.157.326c.6-.332-44.972 19.656-66.9 67.41 25.949-1.084 51.924-1.58 77.898-1.551" fill="#E9C0D1" mask="url(#f)"/></g><path d="M156.698 90.417s-21.158 11.776-37.924 15.202c-15.257 3.119-23.789-7.577-23.789-7.577S81.184 82.168 82.869 53.175c.835-14.385 27.285-14.355 43.266-14.325 10.118.019 16.04.039 8.609-3.601-46.771-22.903-95.669-.842-94.369 33.566.688 18.231 10.32 46.414 29.401 59.753l.158-18.268s-15.686-19.381-7.683-23.97c9.698-5.561 17.183 12.234 20.618 17.088 0 0 4.518 10.094 11.527 24.367 4.844 9.866 20.317 23.191 45.689 15.829 23.32-6.766 24.286-34.385 16.613-53.197" fill="#0F1E18"/><g transform="translate(40 25)"><mask id="h" fill="#fff"><use xlink:href="#g"/></mask><path d="M43.653 24.749l-65.029 7.592S15.4 152.608 46.892 87.15l14.458-9.046S47.116 63.822 45.384 44.285c-1.731-19.536-2.153-13.381-1.731-19.536" fill="#E9846F" mask="url(#h)"/><path d="M29.776 103.568C13.607 92.265 4.222 70.3 1.316 52.766.793 49.609.48 46.597.375 43.815a34.815 34.815 0 01-.026-1.329 33.88 33.88 0 012.556-12.98l40.734-4.755a10.387 10.387 0 00-.77 3.424 84.155 84.155 0 00-.143 4.88c.003 25.89 12.259 39.987 12.259 39.987s2.2 2.758 6.362 5.064L46.892 87.15a616.654 616.654 0 01-4.023-8.732c-2.979-4.21-9.004-18.152-16.878-18.152-1.204 0-2.454.326-3.74 1.064-1.079.619-1.728 1.506-2.042 2.579a6.308 6.308 0 00-.233 1.762c-.003 7.322 9.958 19.629 9.958 19.629l-.158 18.268" fill="#393A2D" mask="url(#h)"/><path d="M20.948 64.218c-.752-.311-1.229.83-1.209 1.642.105 4.385 1.559 8.628 2.005 12.992.447 4.363-.383 9.289-3.825 12.008-2.965 2.343-7.058 2.458-10.836 2.47.266 4.297 2.643 8.144 5.047 11.717 1.741 2.585 3.638 5.231 6.398 6.678 2.748 1.442 5.985 1.504 9.088 1.526 3.996.026 8.586-.237 11.039-3.392 1.34-1.723 1.738-3.988 1.916-6.165.699-8.488-1.343-17.18-5.749-24.469-2.924-4.838-6.813-9.008-10.672-13.14-.255-.273-.55-.566-.924-.583-.374-.017-.742.446-.5.732" fill="#0F1E18" mask="url(#h)"/><path d="M117.266 65.815s7.288 53.419-58.771 43.982c0 0-.42 19.612 32.467 22.106 32.885 2.494 56.184-10.148 56.184-10.148l7.166-36.36-14.491-21.837-9.392-3.125-13.163 5.382" fill="#0A0B09" mask="url(#h)"/></g><path d="M140.848 105.78c-.707 1.898-2.096 3.528-3.899 4.685a11.689 11.689 0 01-6.277 1.829c-2.193-.001-4.447-.617-6.525-2.026a1.244 1.244 0 00-1.396 2.057 14.036 14.036 0 007.921 2.455 14.17 14.17 0 007.62-2.223c2.202-1.414 3.966-3.446 4.885-5.909a1.242 1.242 0 10-2.329-.868" fill="#FFFFFE"/><path d="M129.108 118.794s8.464 1.068 12.904-3.565c0 0-.668 5.941-3.934 6.653-3.268.713-8.97-3.088-8.97-3.088" fill="#0A0B09"/><path d="M90.226 75.679L58.137 98.666a1.243 1.243 0 001.447 2.021L91.673 77.7a1.244 1.244 0 00-1.447-2.021" fill="#FFFFFE"/><path d="M69.933 110.429S52.517 91.635 61.53 85.718c9.015-5.917 17.545 11.985 17.545 11.985l-9.142 12.726" fill="#E9846F"/></g></svg>