<svg xmlns="http://www.w3.org/2000/svg" width="134" height="72" viewBox="0 0 134 72" cursor="pointer"><style>@media (prefers-color-scheme:dark){.monogram{fill:#ebf2f0}}</style><g fill="#191A19" class="monogram"><path d="M102.1 0c.8 0 1.3.4 1.6 1l.1.1 30 67.3c.6 1.2-.1 2.5-1.5 2.6h-4.2c-.8 0-1.4-.5-1.6-1l-24.6-55.6h-.8L76.6 69.9c-.2.5-.7 1-1.5 1.1h-4.2c-1.4 0-2.2-1.2-1.8-2.4l.1-.2L99.4 1.1c.3-.5.7-1 1.5-1.1h1.2z" opacity=".25"/><path d="M38.9 72c.6 0 1.5-.5 1.7-1.1L59 18.1h.4l8.9 51.5c.2.7 1 1.4 1.8 1.4h4c1.5 0 2.1-1 1.8-2.4L63 1.4C62.8.6 62 0 61.2 0h-1.6c-.7 0-1.5.5-1.7 1.1L38.4 56.2h-.5L18.1 1.1c-.2-.6-1-1.1-1.7-1.1h-1.6C14 0 13.2.6 13 1.4L.1 68.6C-.2 70 .4 71 1.9 71h4c.8 0 1.7-.7 1.8-1.4l8.7-51.5h.4l18.6 52.8c.2.6 1.1 1.1 1.7 1.1h1.8z"/></g></svg>