<svg xmlns="http://www.w3.org/2000/svg" width="60" height="60" fill="none">
  <g clip-path="url(#a)">
    <path fill="#191919" d="M42.34 0C58.72 0 60 1.281 60 17.66v24.679C60 58.718 58.719 60 42.34 60H17.66C1.28 60 0 58.718 0 42.34V17.66C0 1.28 1.281 0 17.66 0h24.68ZM18.234 44.528c.099-.175 1.014-1.766 2.367-4.125-1.28-1.5-2.88-1.877-4.722-1.409-1.04 1.81-1.72 2.998-1.806 3.147a2.398 2.398 0 1 0 4.161 2.387Zm16.945-6.701c1.007-2.75-1.05-4.558-2.752-4.797h-7.598l10.427-18.171a2.398 2.398 0 1 0-4.16-2.387c-.062.111-.469.82-1.096 1.911l-1.096-1.91a2.398 2.398 0 0 0-4.16 2.386l2.491 4.342-7.934 13.829h-6.402a2.399 2.399 0 0 0 0 4.797h22.28Zm11.922 0a2.399 2.399 0 0 0 0-4.797H40.7l-7.14-12.443c-1.894 2.336-2.2 4.898-1.139 7.655l9.343 16.284a2.398 2.398 0 0 0 4.16-2.387l-2.475-4.312h3.653Z"/>
  </g>
  <defs>
    <clipPath id="a">
      <path fill="#fff" d="M0 0h60v60H0z"/>
    </clipPath>
  </defs>
</svg>
