<svg xmlns="http://www.w3.org/2000/svg" width="48" height="85" fill="none">
  <g clip-path="url(#a)">
    <path fill="#F4F5F5" d="M4.443 84.863c1.27 0 2.344-.488 3.174-1.318l38.72-37.842c.929-.928 1.417-2.05 1.417-3.271 0-1.27-.488-2.442-1.416-3.272L7.666 1.367C6.787.488 5.713 0 4.443 0 1.904 0 0 1.953 0 4.492a4.73 4.73 0 0 0 1.27 3.174l35.546 34.766L1.27 77.197A4.637 4.637 0 0 0 0 80.371c0 2.54 1.904 4.492 4.443 4.492Z"/>
  </g>
  <defs>
    <clipPath id="a">
      <path fill="#fff" d="M0 0h48v85H0z"/>
    </clipPath>
  </defs>
</svg>
