<svg xmlns="http://www.w3.org/2000/svg" width="20" height="20" fill="none">
  <g clip-path="url(#a)">
    <path fill="#191919" d="M4.864 1.424a.75.75 0 1 1 .771 1.286 8.498 8.498 0 1 0 8.729.003.75.75 0 1 1 .773-1.286 9.994 9.994 0 0 1 4.858 8.575c0 5.519-4.479 9.998-9.997 9.998S0 15.521 0 10.002a9.995 9.995 0 0 1 4.864-8.578Zm.831 8.582 3.779 3.774a.747.747 0 0 0 1.061 0l3.779-3.775a.75.75 0 0 0-.004-1.057.747.747 0 0 0-1.056-.004l-2.5 2.499V.75a.75.75 0 0 0-1.5 0v10.693L6.756 8.945a.746.746 0 0 0-1.054.006.754.754 0 0 0-.222.531c0 .19.071.38.215.524Z"/>
  </g>
  <defs>
    <clipPath id="a">
      <path fill="#fff" d="M0 0h20v20H0z"/>
    </clipPath>
  </defs>
</svg>
